<svg width="331.31" height="272.48" version="1.1" viewBox="0 0 331.31 272.48" xmlns="http://www.w3.org/2000/svg">
 <path d="m124.43 0c-13.604 0.70247-34.057 13.267-34.738 28.736-0.24983 2.4794-1.6868 12.421-2.6992 17.799-0.75805 4.0268-1.1586 8.8355-1.2363 12.918-0.05231 2.7481 0.12411 4.7709-0.80469 6.9492-1.3617 3.1936-1.9108 5.6373-1.9277 8.791-0.02316 4.3132 0.7675 7.5348 2.1465 9.5664 1.7798 2.6221 1.4432 8.3261 0.11133 14.83-0.48807 2.3835-0.34679 5.3587 0.21289 8.5566 1.6531 9.4458 6.965 20.824 10.549 24.549 0.62888 0.6536 2.3614 5.9717 5.6211 10.541 2.9216 4.3608-0.44911 3.7287 3.0918 8.5586 1.0318 2.5954 1.3735 3.7856 4.1152 5.9688 1.5422 1.2281 7.3155 2.4752 10.369 3.0547 1.2496 0.2371 1.5166 20.718 1.6738 21.873l-0.15625-0.94727c-3.6642 0.9853-6.5244 2.0497-9.3359 7.3086-3.2701 0.2927-8.8392 3.5324-11.211 4.3867-4.0491 1.4586-13.234 2.1259-18.795 2.8809-7.8198 1.0616-5.959 1.8867-5.959 1.8867-3.9504-0.091-24.712 7.0632-33.854 12.199-6.4082 3.6004-20.273 4.0008-28.109 23.266l-8.5 20.744c-0.90702 2.2136-6.8238 18.07-4.4316 18.068l330.26-0.25c2.3921 0-4.8554-12.579-6.1836-14.568-13.387-20.054-17.773-28.713-31.91-43.436-19.532-8.7677-41.123-15.476-61.84-23.059-6.2785-2.2981-11.224-6.7774-17.129-8.4531-1.1956-0.3392-2.7904-1.8604-4.2422-2.8477-1.7078-0.88878-6.3336-2.9373-9.1152-2.334-1.752-2.4614-2.5167-5.463-3.252-8.252-2.3016-8.7305-3.2167-16.947-3.0078-25.074 0.12649-4.9206-0.15295-10.493 0.33399-15.291 0.60109-5.9232 2.0356-10.78 2.8203-13.125 0.67698-2.0228 4.9486-4.5558 6.043-6.1426 7.1142-10.315 9.5383-16.155 12.152-26.309 1.3276-5.1568 0.65983-13.878-0.50976-24.16-1.0884-9.5689-8.3443-21.109-13.654-32.262-1.1297-2.3729-5.8465-5.9591-13.193-11.221-4.7231-3.3825-10.782-8.3347-16.846-11.197-7.5539-3.5664-29.822-4.4639-46.861-4.5039zm76.225 177.88c0.0657 0.0866 0.13889 0.17621 0.21484 0.27149-0.0731-0.0897-0.14474-0.18013-0.21484-0.27149zm-80.055 5.1152c-0.88505 0.32293-3.7937 2.0267-5.2832 3.791 1.43-1.7682 4.381-3.4624 5.2832-3.791z" fill="#ae805c" fill-opacity=".47674" style="paint-order:fill markers stroke"/>
 <g fill-opacity=".43137">
  <path d="m123.72 124.84c-3.8379 0.6517-8.4578 3.5054-5.7362 2.8442 4.6126-3.5183-2.1523-0.6626-6.8549 1.3471-0.48807 2.3835-9.1127-1.6075-8.553 1.5904 0 0 2.0212 3.2962 4.4815 4.9985 0.62888 0.6536-1.4568 1.7022-3.5903 6.2715-10.351-14.873-10.834-14.294-10.834-14.294 0.28249 0.8988 1.6924 2.8599 1.7584 2.9645 0.17801 0.2821 1.529 1.9442 1.7984 2.3376 0.68591 1.0014 1.7869 3.97 2.8339 5.8819 0.45897 0.8381 1.0376 1.9452 1.6433 2.9326 0.94732 1.5442 1.8798 2.877 1.9015 3.0536 0.24658 2.0081 0.23774 4.4226 1.3227 5.5963 0.42742 0.4623 0.45346 1.3071 0.86795 1.4343 1.0318 2.5954 1.3735 3.7855 4.1152 5.9687 1.6074 1.3323 9.7058 3.6 11.495 2.1558 10.702-2.7832 13.052-2.7538 25.574-8.0784 10.799-3.7878 17.905-9.9854 32.052-20.87 1.0318-5.0145 3.2154-14.074 2.6966-21.111 0 0 1.3645-26.092 0.27255-26.147l-8.0224-2.6066c-1.1192 5.1879-0.76127 11.36-3.3575 15.564-4.2556 2.885-23.265 13.59-23.265 13.59 0 2.8846 3.6732 8.4511 6.0436 11.093 5.3027 5.9107-4.0316 4.0647-8.6032 3.1723-2.2154 0.8514-3.1546 4.0134-4.4725 5.5634-2.1581 2.5382-5.1347 4.7681-7.0167 5.9135-1.1338 0.6901-2.672 0.2438-5.7242-1.6318-3.018-1.8547-0.42757-6.5815-2.8256-9.5349z" style="paint-order:fill markers stroke"/>
  <path d="m109.63 107.37 10.208-0.9349 9.4166-0.4952c2.1108-0.1109 11.56 3.9766 10.765 11.202-0.51897 4.7201-2.6474 1.1701-4.9375-1.1861-1.4247-1.4657-3.2401-2.131-3.444-2.3892-2.0909-2.648-4.2487-0.4675-8.0669-1.4363-2.2886-0.5807-7.5771 0.4379-10.249 0.4182-2.0101-0.015-6.9372 1.891-8.6518 2.3734-1.8852 0.5303-4.135 1.6026-5.3391 3.0961-1.4462 1.7937-0.7988 6.6773-1.0353 10.165l-0.26546 2.2271s-2.6258-4.3118-3.4369-8.1249c-0.2481-1.1664 0.61676-4.8252 0.61676-4.8252 1.8405-1.6983 2.37-4.8737 4.0456-6.2828 0.75332-0.6335 2.3096-0.3931 3.9407-0.9492 3.114-1.0617 6.6541-2.7294 6.4334-2.8582z" style="paint-order:fill markers stroke"/>
  <path d="m84.952 66.402c-1.3617 3.1936-1.7519 5.5579-1.7688 7.3609 0.31867-3.6575 1.9076-1.9283 4.5546-2.3826 1.1344 0.2221 5.6432 2.4878 6.5143 0.9933 0.67326-1.1552 2.2619-4.1207 1.2717-4.4886-3.6192-3.0904-8.3615-1.5224-10.572-1.483z" style="paint-order:fill markers stroke"/>
 </g>
 <path d="m144.25-2.5801c-0.4714 1.1785-1.0128 2.3314-1.4142 3.5355-0.0745 0.22361 0 0.4714 0 0.70711-0.2357 0.70711-0.37377 1.4547-0.70711 2.1213-0.14907 0.29814-0.60169 0.39088-0.7071 0.70711-0.14907 0.44721 0.11433 0.95688 0 1.4142-0.12783 0.51131-0.57928 0.9029-0.70711 1.4142-0.11433 0.45733 0.11433 0.95688 0 1.4142-0.12783 0.51131-0.57928 0.9029-0.70711 1.4142-0.11433 0.45733 0.14907 0.967 0 1.4142-0.21082 0.63246-1.1161 0.81793-1.4142 1.4142-0.21082 0.42164 0.33333 1.0809 0 1.4142-0.37268 0.37268-1.0415 0.33443-1.4142 0.70711-2.7596 2.7596 0.16367 0.37975-0.70711 2.1213-0.14907 0.29814-0.6017 0.39088-0.70711 0.70711-0.14907 0.44721 0 0.94281 0 1.4142 0 0.2357 0.10541 0.49629 0 0.70711-0.14907 0.29814-0.55803 0.40896-0.7071 0.70711-0.10541 0.21082 0 0.4714 0 0.70711v0.70711 4.2426 0.70711c0 0.2357 0.16666 0.54044 0 0.70711-0.16667 0.16667-0.54044-0.16667-0.70711 0-0.16667 0.16667 0.10541 0.49629 0 0.70711-0.14907 0.29814-0.55804 0.40896-0.70711 0.70711-0.10541 0.21082 0.10541 0.49629 0 0.70711-0.14907 0.29814-0.55803 0.40896-0.70711 0.70711-0.21081 0.42164 0.21082 0.99258 0 1.4142-0.14907 0.29814-0.55803 0.40896-0.7071 0.70711-0.10541 0.21082 0.21082 0.6017 0 0.70711-0.42164 0.21082-1.4142 0.4714-1.4142 0 0-0.4714 1.4142-0.4714 1.4142 0 0 0.52705-1.0415 0.33443-1.4142 0.70711-0.16666 0.16667 0 0.4714 0 0.70711v5.6569c0 0.16803 0.0793 2.6699 0 2.8284-0.14907 0.29814-0.55803 0.40896-0.7071 0.70711-0.22222 0.44443 0.22221 2.384 0 2.8284-0.14907 0.29814-0.55804 0.40896-0.70711 0.70711-0.21082 0.42164 0.33333 1.0809 0 1.4142-1.8856 0 0.2357-0.2357-0.70711 0.70711-0.16666 0.16667-0.54044-0.16667-0.7071 0-0.16667 0.16667 0 0.4714 0 0.70711-0.2357 0-0.54044-0.16667-0.70711 0-0.16667 0.16667 0.2357 0.70711 0 0.70711s0.16667-0.87377 0-0.70711c-0.87923 0.87923-0.70711 1.7779-0.70711 2.8284 0 0.2357 0.16667 0.54044 0 0.70711-0.16666 0.16667-0.54044-0.16667-0.7071 0-0.0227 0.02274 0 1.9498 0 2.1213 0 0.2357 0.2357 0.70711 0 0.70711-0.23571 0 0-0.94281 0-0.70711v1.4142 4.2426 3.5355c0 0.2357-0.16667 0.54044 0 0.70711 0.16666 0.16667 0.60169-0.21082 0.7071 0 0.22222 0.44443-0.22221 2.384 0 2.8284 0.14908 0.29814 0.55804 0.40896 0.70711 0.70711 0.10541 0.21082-0.16667 0.54044 0 0.70711 0.16667 0.16667 0.54044-0.16667 0.70711 0 0.10973 0.10973-0.0917 1.8462 0 2.1213 0.16666 0.5 0.54044 0.91421 0.7071 1.4142 0.0745 0.22361-0.10541 0.49629 0 0.70711 0.14908 0.29814 0.40897 0.55804 0.70711 0.70711 0.21082 0.10541 0.70711-0.2357 0.70711 0s-0.47141 0-0.70711 0c0.47141 0.2357 1.0415 0.33443 1.4142 0.70711 0.16667 0.16667 0 0.4714 0 0.70711v0.70711c0 0.2357 0.23571 0.70711 0 0.70711-0.2357 0 0-0.94281 0-0.70711 0 0.4714-0.21081 0.99258 0 1.4142 0.29815 0.59628 1.0444 0.85951 1.4142 1.4142 0.13074 0.19612-0.10541 0.49629 0 0.70711 0.14907 0.29814 0.55803 0.40896 0.7071 0.70711 0.22593 0.45186-0.18971 2.2593 0 2.8284 0.16667 0.5 0.54045 0.91421 0.70711 1.4142 0.0745 0.22361-0.10541 0.49629 0 0.70711 0.14907 0.29814 0.55804 0.40896 0.70711 0.70711 0.21082 0.42164-0.21082 0.99258 0 1.4142 0.14907 0.29814 0.55803 0.40896 0.70711 0.70711 0.21081 0.42164-0.14908 0.967 0 1.4142 0.16666 0.5 0.54044 0.91421 0.7071 1.4142 0.0745 0.22361-0.16666 0.54044 0 0.70711 0.16667 0.16667 0.54044-0.16667 0.70711 0 0.33333 0.33333-0.33333 1.0809 0 1.4142 0.16667 0.16667 0.54044-0.16667 0.70711 0 0.16666 0.16667-0.16667 0.54044 0 0.70711 0.16666 0.16667 0.54044-0.16667 0.7071 0 0.21853 0.21853-0.21677 3.3188 0 3.5355 0.16667 0.16667 0.54044-0.16667 0.70711 0 0.16667 0.16667 0 0.4714 0 0.70711v0.70711 0.70711-1.4142c0 0.70711-0.22361 1.4505 0 2.1213 0.0745 0.22361 0.70711-0.2357 0.70711 0 0 0.23571-0.94281 0-0.70711 0 0.4714 0 0.99258 0.21082 1.4142 0 0.21082-0.1054-0.16666-0.54044 0-0.7071 0.16667-0.16667 0.54044 0.16666 0.70711 0 0.16667-0.16667-0.16667-0.54044 0-0.70711 0.16667-0.16667 0.54044 0.16667 0.70711 0 0.254-0.254-0.22874-2.371 0-2.8284 0.10541-0.21082 0.54044 0.16667 0.7071 0 0.35356-0.35355-0.35355-1.7678 0-2.1213 0.16667-0.16667 0.54044 0.16667 0.70711 0 0.14456-0.14456-0.14018-1.841 0-2.1213 0.14907-0.29814 0.55804-0.40896 0.70711-0.70711 0.19179-0.3836-0.19348-2.6349 0-2.8284 0.16666-0.16667 0.54044 0.16667 0.7071 0 0.33334-0.33333-0.33333-1.0809 0-1.4142 0.16667-0.16667 0.54044 0.16667 0.70711 0 0.13763-0.13763-0.1291-3.2773 0-3.5355 0.10541-0.21082 0.54044 0.16667 0.70711 0 0.16666-0.16667 0-0.4714 0-0.70711 0.4714 0 0.99257 0.21082 1.4142 0 0.21082-0.10541-0.16667-0.54044 0-0.70711 0.16667-0.16667 0.47141 0 0.70711 0s0.7071-0.2357 0.7071 0c0 0.2357-0.87377 0.16667-0.7071 0 0.37268-0.37268 0.91421-0.54044 1.4142-0.70711 0.22361-0.07454 0.54044 0.16667 0.70711 0 0.16666-0.16667-0.16667-0.54044 0-0.70711 0.16666-0.16667 0.7071-0.2357 0.7071 0 0 0.33333-1.0404 0.70711-0.7071 0.70711 0.52704 0 0.91421-0.54044 1.4142-0.70711 1.0607-0.35355 0.70711 0.70711 2.1213 0 0.21082-0.10541 0.16667-0.54044 0-0.70711-0.10398-0.10399-2.1213 0.08319-2.1213 0 0-0.2357 0.81252 0.21082 0.70711 0 0.60506-3.2806-1.5204-0.81329-2.1213-1.4142-1.6583-1.6583 2.1785 0 0.7071 0-3.5722 0-0.54342-0.54343-1.4142-1.4142-0.16667-0.16667-0.54044 0.16667-0.70711 0-0.16666-0.16667 0.16667-0.54044 0-0.70711-0.16666-0.16667-0.54044 0.16667-0.7071 0-0.16667-0.16667 0.21082-0.6017 0-0.70711-0.42164-0.21082-0.94281 0-1.4142 0-0.2357 0-0.54044 0.16667-0.7071 0-0.33334-0.33333 0.33333-1.0809 0-1.4142-0.16667-0.16667-0.54044 0.16667-0.70711 0s0-0.4714 0-0.70711c0-0.4714 0.21082-0.99258 0-1.4142-0.10541-0.21082-0.54044 0.16667-0.70711 0-0.19348-0.19348 0.1918-2.4448 0-2.8284-0.42426-0.84853-1.697-1.2728-2.1213-2.1213-0.33333-0.66667-0.43029-1.4293-0.7071-2.1213-0.19574-0.48935-0.54044-0.91421-0.70711-1.4142-0.14794-0.44382 0-2.2592 0-2.8284v0.70711-3.5355-0.70711c0-0.2357 0.10541-0.49629 0-0.70711-0.87377-1.7475-0.70711 0.24408-0.70711-1.4142v-3.5355c0-0.2357 0.16667-0.54044 0-0.70711-0.16666-0.16667-0.54044 0.16667-0.7071 0-0.16667-0.16667-0.23571-0.70711 0-0.70711 0.2357 0 0.2357 0.70711 0 0.70711-0.33334 0-0.55804-0.40896-0.70711-0.70711-0.1076-0.2152 0-1.8029 0-2.1213v-4.9497-0.70711c0-0.2357-0.16667-0.54044 0-0.70711s0.4714 0 0.70711 0c0.2357-0.4714 0.54044-0.91421 0.7071-1.4142 0.14907-0.44721-0.33333-1.0809 0-1.4142 0.16667-0.16667 0.54044 0.16667 0.70711 0s-0.16667-0.54044 0-0.70711c0.16667-0.16667 0.54044 0.16667 0.70711 0 1.463-1.463-2.2357 0.05719 0.7071-1.4142 0.42164-0.21082 1.0809 0.33333 1.4142 0 0.16666-0.16667-0.0572-0.47844 0-0.70711 0.22998-0.91993 0.829-2.6577 1.4142-3.5355 1.083-1.6245 0.4039 0.30321 2.1213-1.4142 0.33333-0.33333-0.21082-0.99258 0-1.4142 0.14907-0.29814 0.50711-0.44044 0.70711-0.70711 5.259-7.012-1.169 1.3999 2.1213-3.5355-0.0706-1.4008 1.0415-0.33443 1.4142-0.70711 0.16667-0.16667-0.16667-0.54044 0-0.70711 0.16667-0.16667 0.54044 0.16667 0.70711 0 0.16666-0.16667-0.16667-0.54044 0-0.70711 0.60092-0.60092 1.5204-0.81329 2.1213-1.4142 0.60092-0.60092 1.0342-1.3612 1.4142-2.1213 0.14018-0.28036-0.14456-1.9768 0-2.1213 0.16667-0.16667 0.54044 0.16667 0.70711 0 0.17015-0.17015-0.17015-2.6583 0-2.8284 0.33333-0.33333 1.0809 0.33333 1.4142 0 0.37268-0.37268 0.54044-0.91421 0.70711-1.4142 0.0745-0.22361-0.16667-0.54044 0-0.70711 0.33333-0.33333 1.0809 0.33333 1.4142 0 0.16667-0.16667-0.16666-0.54044 0-0.70711 0.16667-0.16667 0.47141 0 0.70711 0 0-0.2357-0.16667-0.54044 0-0.70711 0.69754-0.69754 1.4142 1.4489 1.4142-0.70711 0-1.8856-0.2357 0.2357 0.70711-0.70711 0.16667-0.16667-0.16667-0.54044 0-0.70711 0.16667-0.16667 0.54044 0.16667 0.70711 0 0.16666-0.16667-0.10541-0.49629 0-0.70711 0.14907-0.29814 0.60169-0.39088 0.7071-0.70711 0.14907-0.44721 0-0.94281 0-1.4142 0-0.2357-0.10541-0.49629 0-0.70711 0.14907-0.29814 0.55804-0.40896 0.70711-0.70711 0.12647-0.25295-0.21846-2.0121 0-2.1213 0.42164-0.21082 0.94281 0 1.4142 0" fill="#f00" stroke="#f00" stroke-width="1px"/>
 <path d="m116.46 58.915c4.3048-1.6504 8.0668-3.9521 13.763-3.9325 1.0564 0 12.688 2.318 14.266 3.2144 2.4847 1.4117 4.7656 3.7405 6.8266 7.059 0.726 1.9158 0.76116 2.4486-0.19415 1.9977-2.4372-1.1504-4.556-2.3782-6.5494-3.4875-6.8771-3.8268-12.261-6.2433-24.068 0.7909-0.22184 0.1322-7.4123 5.068-9.3224 3.3024l-0.22471-4.6063c2.1348-2.8265 4.5159-3.9599 5.5022-4.3381z" fill-opacity=".43137" style="paint-order:fill markers stroke"/>
 <g>
  <path d="m209.52 179.87c1.1062 2.1157 2.4101 4.1392 3.3185 6.347 0.0897 0.21797-0.54044-0.16667-0.70711 0-0.16666 0.16667 0.16667 0.54044 0 0.70711-0.16666 0.16666-0.4714 0-0.7071 0-0.2357 0.2357-0.52221 0.42975-0.70711 0.7071-0.29235 0.43853-0.41475 0.97569-0.70711 1.4142-0.3698 0.5547-1.1161 0.81792-1.4142 1.4142-0.21082 0.42164 0.33333 1.0809 0 1.4142-0.16667 0.16667-0.54044-0.16666-0.70711 0-1.463 1.463 2.2357-0.0572-0.7071 1.4142-0.21082 0.10541-0.54044-0.16667-0.70711 0-6.7e-4 6.7e-4 1e-3 2.1181 0 2.1213-0.15961 0.47881-1.8512 1.5812-2.1213 2.1213-0.21082 0.42163 0.21082 0.99257 0 1.4142-0.75871 1.5174-0.77219 0.0325-2.1213 0.70711-0.21082 0.10541 0.10541 0.49629 0 0.7071-0.14907 0.29815-0.52221 0.42976-0.70711 0.70711-0.29235 0.43853-0.41475 0.97569-0.7071 1.4142-0.1849 0.27735-0.55804 0.40897-0.70711 0.70711-0.10541 0.21082 0.10541 0.49629 0 0.70711-0.14907 0.29814-0.55804 0.40896-0.70711 0.70711-0.21082 0.42163 0.21082 0.99257 0 1.4142-0.14907 0.29814-0.55803 0.40896-0.7071 0.70711-0.14019 0.28036 0.14455 1.9768 0 2.1213-0.16667 0.16666-0.54044-0.16667-0.70711 0-0.16667 0.16666 0.10541 0.49628 0 0.7071-0.29814 0.59629-1.1161 0.81793-1.4142 1.4142-0.21082 0.42163 0.42163 1.2034 0 1.4142-0.91994 0.45997-1.6661-0.65858-2.1213 0.70711-0.14907 0.44721 0 0.94281 0 1.4142 0 0.2357 0.10541 0.49629 0 0.70711-0.14907 0.29814-0.4714 0.4714-0.7071 0.7071-0.2357 0.23571-0.40897 0.55804-0.70711 0.70711-0.21082 0.10541-0.54044-0.16667-0.70711 0-0.33333 0.33333 0.33334 1.0809 0 1.4142-0.16666 0.16667-0.54044-0.16666-0.7071 0-0.16667 0.16667 0.10541 0.49629 0 0.70711-1.6181 3.2362 0.29307-3.0006-1.4142 2.1213-0.0745 0.22361 0.16667 0.54044 0 0.70711-0.37267 0.37268-1.0415 0.33443-1.4142 0.7071-0.16667 0.16667 0.10541 0.49629 0 0.70711-0.14907 0.29814-0.55803 0.40897-0.70711 0.70711-0.21081 0.42164 0.33334 1.0809 0 1.4142-0.16666 0.16667-0.54044-0.16666-0.7071 0-0.16667 0.16667 0.0745 0.4835 0 0.70711-0.16667 0.5-0.54044 0.91421-0.70711 1.4142-0.14907 0.44722 0.21082 0.99258 0 1.4142-0.14907 0.29814-0.55804 0.40896-0.70711 0.7071-0.21082 0.42164 0.33334 1.0809 0 1.4142-0.16666 0.16666-0.54044-0.16667-0.7071 0-0.16667 0.16666 0.2357 0.7071 0 0.7071-0.23571 0 0-0.94281 0-0.7071v7.0711c0 0.36976 0.093 2.6425 0 2.8284-0.14907 0.29814-0.55804 0.40897-0.70711 0.70711-0.10541 0.21082 0 0.4714 0 0.7071v1.4142c0 0.2357 0.2357 0.7071 0 0.7071-0.29026 0 0.75445-3.6776-0.70711 0.70711-0.12995 0.38985 0.15118 2.6772 0 2.8284-0.37267 0.37268-1.0415 0.33443-1.4142 0.70711-0.37268 0.37267-0.41475 0.97568-0.70711 1.4142-0.1849 0.27735-0.55803 0.40896-0.7071 0.70711-0.10541 0.21081 0.10541 0.49628 0 0.7071-0.42427 0.84853-1.6971 1.2728-2.1213 2.1213-0.21082 0.42164 0.21081 0.99258 0 1.4142-0.42427 0.84852-1.6971 1.2728-2.1213 2.1213-0.14019 0.28036 0.14455 1.9768 0 2.1213-0.37268 0.37268-1.0415 0.33443-1.4142 0.7071-0.16666 0.16667 0 0.47141 0 0.70711v1.4142 7.0711c0 0.25968 0.0285 2.8 0 2.8284-0.16666 0.16667-0.54044-0.16667-0.70711 0-0.16666 0.16667-0.16666 0.54044 0 0.70711 0.0873 0.0873 2.385 0 2.8284 0h14.849 23.335 2.8284 0.7071c0.2357 0 0.70711-0.23571 0.70711 0 0 0.2357-0.94281 0-0.70711 0h1.4142c0.2357 0 0.7071-0.23571 0.7071 0 0 0.2357-0.7071 0.2357-0.7071 0 0-0.33334 0.60169-0.39088 0.7071-0.70711 0.14907-0.44721 0-0.94281 0-1.4142v-4.2426-7.0711c0-0.16803-0.0792-2.67 0-2.8284 1.0782-2.1564 0.56057 1.2933 1.4142-2.1213 0.11433-0.45733 0-0.94281 0-1.4142v-2.8284c0-0.2357-0.16667-0.54044 0-0.70711 0.37267-0.37268 1.0415-0.33443 1.4142-0.7071 0.37268-0.37268 0.4714-0.94281 0.70711-1.4142 0.2357-0.4714 0.57928-0.9029 0.7071-1.4142 0.15596-0.62382-0.20191-2.2227 0-2.8284 0.16667-0.5 0.54044-0.91421 0.70711-1.4142 0.0745-0.22361-0.10541-0.49629 0-0.70711 0.14907-0.29814 0.55804-0.40896 0.70711-0.70711 0.21082-0.42163-0.33334-1.0809 0-1.4142 0.16666-0.16667 0.54044 0.16667 0.7071 0 0.33334-0.33333-0.21081-0.99258 0-1.4142 0.14907-0.29815 0.47141-0.47141 0.70711-0.70711l3.5355-3.5355c0.23571-0.23571 0.55804-0.40897 0.70711-0.70711 0.1918-0.3836-0.19348-2.635 0-2.8284 0.16667-0.16666 0.54044 0.16667 0.70711 0 0.16666-0.16666 0-0.4714 0-0.7071v-0.70711-3.5355c0-0.4714-0.14907-0.967 0-1.4142 1.3144-3.9434 0.0306 2.0601 2.8284-3.5355 1.4209-7.1047-0.46616-1.0685 2.1213-4.9498 0.20527-0.30792-0.18663-1.7481 0-2.1213 0.76011-1.5202 1.954-2.7852 2.8284-4.2426 0.27117-0.45194 0.41476-0.97569 0.70711-1.4142 0.3698-0.5547 1.1161-0.81793 1.4142-1.4142 0.2244-0.4488-0.22924-3.3063 0-3.5355 0.16667-0.16667 0.54044 0.16666 0.70711 0 0.33333-0.33334-0.33333-1.0809 0-1.4142 0.37268-0.37267 1.0415-0.33442 1.4142-0.7071 0.16667-0.16667 0-0.47141 0-0.70711v-0.70711" fill="#f00" stroke="#f00" stroke-width="1px"/>
  <path d="m305.65 230.06c-0.49177 0.18472-0.92658 0.51205-1.4142 0.70711-0.17301 0.0692-0.35732 0.10757-0.53033 0.17677-0.24467 0.0979-0.4714 0.2357-0.7071 0.35356-0.58926 0.29462-1.1785 0.58925-1.7678 0.88388-0.2357 0.11785-0.47141 0.2357-0.70711 0.35355-0.11785 0.0589-0.24392 0.10369-0.35355 0.17678-0.0693 0.0462-0.11785 0.11785-0.17678 0.17678-0.37174 0.37174-0.59596 0.58079-0.88388 1.0607-0.0678 0.11298-0.0739 0.27124-0.17678 0.35355-0.80425 0.6434-0.55361 0.031-1.0607 0.70711-0.23918 0.3189-0.2301 0.6903-0.35355 1.0607-0.052 0.15606-0.43708 0.92077-0.53033 1.0607-0.0462 0.0693-0.11785 0.11785-0.17678 0.17677-0.11785 0.17678-0.24424 0.34815-0.35355 0.53033-0.0678 0.11299-0.0977 0.24815-0.17678 0.35356-0.1 0.13333-0.25355 0.22022-0.35355 0.35355-0.0791 0.10541-0.10899 0.24057-0.17678 0.35355-0.10931 0.18219-0.24814 0.34587-0.35355 0.53033-0.13075 0.22881-0.18206 0.50703-0.35356 0.70711-0.19174 0.2237-0.55095 0.28049-0.7071 0.53033-0.15925 0.25479-0.10391 0.59239-0.17678 0.88388-0.12536 0.50147-0.40496 0.91275-0.53033 1.4142-0.0729 0.29149-0.0942 0.59498-0.17678 0.88388-0.11133 0.38969-0.3624 0.49207-0.53033 0.88388-0.0957 0.22332-0.0681 0.4898-0.17677 0.70711-0.0745 0.14907-0.25356 0.22022-0.35356 0.35356-0.079 0.1054-0.11785 0.2357-0.17677 0.35355-0.11785 0.2357-0.25569 0.46243-0.35356 0.70711-0.0692 0.17301-0.10757 0.35731-0.17677 0.53033-0.0979 0.24467-0.27022 0.4571-0.35356 0.7071-0.0108 0.0324-0.34806 1.4032-0.35355 1.4142-0.0745 0.14907-0.2611 0.21487-0.35355 0.35355-0.14618 0.21926-0.2357 0.4714-0.35356 0.70711-0.0589 0.11785-0.12784 0.23121-0.17677 0.35355-0.0692 0.17301-0.14024 0.34761-0.17678 0.53033-0.0126 0.063 0.0394 0.62833 0 0.70711-0.0373 0.0745-0.13951 0.10224-0.17678 0.17677-0.0264 0.0527 0 0.11785 0 0.17678 0 0.17678 0.0347 0.35699 0 0.53033-0.0258 0.1292-0.14482 0.22573-0.17677 0.35355-0.0767 0.30693 0.0767 0.75374 0 1.0607-0.032 0.12783-0.13511 0.22856-0.17678 0.35356-0.0474 0.14228 0.0565 0.59414 0 0.7071-0.0373 0.0745-0.15042 0.0977-0.17678 0.17678-0.0675 0.20256 0.0798 0.90105 0 1.0607-0.0745 0.14907-0.27901 0.20448-0.35355 0.35355-0.0527 0.10541 0.0373 0.24175 0 0.35356-0.0263 0.079-0.13951 0.10224-0.17678 0.17677-0.0261 0.0522 0 1.0553 0 1.2374v2.8284 6.8943 2.8284 0.7071c0 0.0589 0.0589 0.17678 0 0.17678s0-0.11785 0-0.17678c0-0.11785-0.0527-0.24814 0-0.35355 0.0264-0.0527 0.12408 0.0263 0.17678 0 0.0745-0.0373 0.10224-0.13951 0.17678-0.17678 0.0396-0.0198 0.6651 0 0.7071 0 0.80474 0 0.0101 0.0833 0.53033-0.17677 0.0527-0.0264 0.11786 0 0.17678 0h0.17678 0.88388c0.0589 0 0.12407 0.0263 0.17678 0 0.0745-0.0373 0.10224-0.13951 0.17677-0.17678 0.0526-0.0263 0.9863 0 1.0607 0h2.2981 1.9446 0.7071 0.17678c0.0589 0 0.17678-0.0589 0.17678 0 0 0.0726-0.9194-0.18861 0.17677 0.17678 0.11181 0.0373 0.27022-0.0833 0.35356 0 0.0417 0.0417-0.0186 0.12087 0 0.17677 0.0417 0.125 0.0836 0.26039 0.17677 0.35356 0.0833 0.0833 0.27022-0.0833 0.35356 0 0.0833 0.0833-0.0833 0.27022 0 0.35355 0.0417 0.0417 0.13511-0.0417 0.17677 0 0.0417 0.0417-0.0263 0.12407 0 0.17678 0.0373 0.0745 0.13951 0.10224 0.17678 0.17677 0.0181 0.0363 0.0249 0.5054 0 0.53033-0.0417 0.0417-0.11785 0-0.17678 0h-1.4142-5.1265-1.591c-0.0796 0-0.47653 0.0269-0.53033 0-0.0745-0.0373-0.10224-0.13951-0.17677-0.17677-0.10421-0.0521-0.95801 0.0513-1.0607 0-0.0527-0.0264 0.0417-0.13511 0-0.17678-0.0417-0.0417-0.13511 0.0417-0.17678 0-0.0417-0.0417 0.0417-0.13511 0-0.17678-0.0833-0.0833-0.27022 0.0833-0.35355 0-0.0417-0.0417 0.0417-0.13511 0-0.17677-0.0417-0.0417-0.13511 0.0417-0.17678 0-0.0417-0.0417 0.0417-0.13511 0-0.17678-0.0833-0.0833-0.27022 0.0833-0.35355 0-0.0417-0.0417 0-0.11785 0-0.17678 0-0.042-0.0198-0.66748 0-0.7071 0.19543-0.39087 0.10971-0.0549 0.35355-0.17678 0.0745-0.0373 0.10224-0.13951 0.17678-0.17678 0.10541-0.0527 0.27022 0.0833 0.35355 0 0.0417-0.0417-0.0417-0.13511 0-0.17677 0.26522-0.26522 0.72535-0.17678 1.0607-0.17678h1.4142 3.182 0.88389 0.35355c0.0589 0 0.12407-0.0264 0.17678 0 0.0745 0.0373 0.10224 0.13951 0.17678 0.17678 0.11152 0.0558 0.77236-0.0558 0.88388 0 0.43689 0.21844-0.061 0.17677 0.35355 0.17677h0.17678c0.0589 0 0.13511-0.0417 0.17678 0 0.0417 0.0417-0.0264 0.12407 0 0.17678 0.0373 0.0745 0.11785 0.11785 0.17677 0.17678 0.0589 0.0589 0.0977 0.15042 0.17678 0.17677 0.10362 0.0345 0.6512-0.0373 0.70711 0 0.49775 0.011 0.045 0.39857 0.17677 0.53033 0.0417 0.0417 0.13511-0.0417 0.17678 0 0.0417 0.0417-0.0417 0.13511 0 0.17678 0.0833 0.0833 0.27022-0.0833 0.35355 0 0.0417 0.0417-0.0417 0.13511 0 0.17678 0.0417 0.0417 0.13511-0.0417 0.17678 0 0.0833 0.0833-0.0833 0.27022 0 0.35355 0.0417 0.0417 0.13511-0.0417 0.17678 0 0.0417 0.0417 0.0589 0.17678 0 0.17678s0-0.11786 0-0.17678c0-0.0589-0.0264-0.12407 0-0.17678 0.21844-0.43688 0.17677 0.061 0.17677-0.35355v-2.1213-3.0052-0.88389c0-0.17678-0.0195-0.35463 0-0.53033 0.0396-0.35624 0.13232-0.705 0.17678-1.0607 0.0292-0.23388 0-0.4714 0-0.70711v-1.0607c0-0.11616-0.0333-0.43059 0-0.53033 0.0417-0.125 0.13051-0.23018 0.17678-0.35355 0.14145-0.37722 0.45152-1.2949 0.53033-1.7678 0.0194-0.11624 0-0.2357 0-0.35355v-0.70711c0-0.11785-0.0373-0.24175 0-0.35355 0.0417-0.125 0.11785-0.2357 0.17677-0.35355 0.0589-0.11785 0.13511-0.22856 0.17678-0.35356 0.05-0.14984 0.15424-0.86134 0.35355-1.0607 0.0932-0.0932 0.26039-0.0836 0.35356-0.17677 0.0417-0.0417-0.0186-0.12088 0-0.17678 0.0417-0.125 0.13511-0.22855 0.17677-0.35355 0.0768-0.23049 0.0681-0.4898 0.17678-0.70711 0.0263-0.0527 0.13511 0.0417 0.17678 0 0.0833-0.0833-0.0527-0.24814 0-0.35355 0.0373-0.0745 0.11785-0.11785 0.17677-0.17678 0.11785-0.11785 0.25356-0.22022 0.35356-0.35355 0.079-0.10541 0.12784-0.23122 0.17677-0.35356 0.0692-0.17301 0.065-0.38126 0.17678-0.53033 0.0791-0.10541 0.26038-0.0836 0.35355-0.17677 0.0417-0.0417-0.0186-0.12088 0-0.17678 0.0417-0.125 0.0977-0.24814 0.17678-0.35355 0.15-0.2 0.39165-0.32232 0.53033-0.53033 0.20313-0.3047 0.17678-0.26722 0.17678-0.53033 0-0.0589-0.0186-0.12088 0-0.17678 0.0833-0.25 0.27022-0.45711 0.35355-0.70711 0.10885-0.32654-0.26974-0.0838 0.17678-0.53033 0.0932-0.0932 0.26038-0.0836 0.35355-0.17677 0.0417-0.0417-0.0263-0.12408 0-0.17678 0.0373-0.0745 0.11785-0.11785 0.17678-0.17678 0.20226-0.20226 0.24653-0.20926 0.35355-0.53033 0.0373-0.1118-0.0373-0.24175 0-0.35355 0.052-0.15607 0.43707-0.92078 0.53033-1.0607 0.0462-0.0693 0.13951-0.10224 0.17678-0.17678 0.0527-0.10541-0.0833-0.27022 0-0.35355 0.0417-0.0417 0.12087 0.0186 0.17677 0 0.35356-0.11785 0.41248-0.17678 0.53033-0.53033 0.0186-0.0559-0.0263-0.12407 0-0.17678 0.0373-0.0745 0.13951-0.10224 0.17678-0.17677 0.0263-0.0527-0.0263-0.12408 0-0.17678 0.0235-0.0469 0.48339-0.50686 0.53033-0.53033 0.31293-0.15647 0.0604 0.26294 0.35355-0.17678 0.94281-1.4142-0.64818 0.64818 0.53033-0.53033 0.36576-0.36576-0.55892 0.0143 0.17678-0.35355 0.0527-0.0263 0.13511 0.0417 0.17678 0 0.0417-0.0417-0.0264-0.12407 0-0.17678 0.19543-0.39086 0.10971-0.0549 0.35355-0.17678 0.14907-0.0745 0.19544-0.30084 0.35355-0.35355 0.11181-0.0373 0.2555 0.0654 0.35356 0 0.10963-0.0731 0.10369-0.24392 0.17677-0.35355 0.0484-0.0726 0.45771-0.48192 0.53033-0.53033 0.21927-0.14618 0.49629-0.19544 0.70711-0.35356 0.30603-0.22952 0.57015-0.67472 0.88388-0.88388 0.049-0.0327 0.13511 0.0417 0.17678 0 0.36576-0.36576-0.55892 0.0143 0.17678-0.35355 0.0527-0.0264 0.12407 0.0263 0.17677 0 0.0745-0.0373 0.10744-0.13055 0.17678-0.17678 0.10963-0.0731 0.24392-0.10369 0.35355-0.17678 0.0693-0.0462 0.10225-0.1395 0.17678-0.17677 0.0527-0.0263 0.2357 0 0.17678 0h-0.70711-0.17678c-0.0589 0-0.17677 0.0589-0.17677 0s0.2357 0 0.17677 0c-0.11785 0-0.24814 0.0527-0.35355 0-0.0292-0.0146 0-0.4833 0-0.53033v-0.35356c0-0.0589 0.0417-0.13511 0-0.17677-0.0417-0.0417-0.13511 0.0417-0.17678 0-0.0417-0.0417 0.0417-0.13511 0-0.17678-0.0932-0.0932-0.24392-0.10369-0.35355-0.17678-0.0693-0.0462-0.10224-0.1395-0.17678-0.17677-0.24383-0.12192-0.15812 0.21408-0.35355-0.17678-0.0263-0.0527 0.0263-0.12407 0-0.17678-0.0373-0.0745-0.15042-0.0977-0.17678-0.17677-2.6e-4 -8e-4 1.7e-4 -0.53016 0-0.53033-0.0417-0.0417-0.12407 0.0264-0.17677 0-0.0745-0.0373-0.10224-0.13951-0.17678-0.17678-0.0527-0.0263-0.11785 0-0.17678 0-0.11785-0.0589-0.24392-0.10369-0.35355-0.17678-0.0589-0.0589-0.11785-0.11785-0.17678-0.17677 0-0.0589 0.0417-0.13511 0-0.17678-0.0833-0.0833-0.24814 0.0527-0.35355 0-0.21213-0.10607-0.3182-0.42426-0.53033-0.53033-0.0527-0.0264-0.12407 0.0263-0.17678 0-0.0745-0.0373-0.10224-0.13951-0.17677-0.17678-0.0527-0.0264-0.13511 0.0417-0.17678 0-0.0833-0.0833 0.0373-0.24175 0-0.35355-0.052-0.15607-0.43707-0.92078-0.53033-1.0607-0.0462-0.0693-0.13055-0.10744-0.17678-0.17678-0.0731-0.10963-0.10368-0.24392-0.17677-0.35355-0.0462-0.0693-0.13951-0.10224-0.17678-0.17678-0.0527-0.10541 0.0527-0.24814 0-0.35355-0.0373-0.0745-0.11785-0.11785-0.17678-0.17678-0.0589-0.0589-0.10744-0.13055-0.17677-0.17677-0.10964-0.0731-0.28047-0.0671-0.35356-0.17678-0.35355-0.53033 0.17678-0.17678 0-0.53033-0.0373-0.0745-0.13951-0.10224-0.17677-0.17678-0.0527-0.10541 0.0527-0.24814 0-0.35355-0.0373-0.0745-0.13951-0.10224-0.17678-0.17678-0.0282-0.0563 0-0.72589 0-0.88388 0-0.0589 0.0417-0.13511 0-0.17678-0.0417-0.0417-0.13511 0.0417-0.17678 0-0.0417-0.0417 0.0264-0.12407 0-0.17677-0.0373-0.0745-0.11785-0.11786-0.17677-0.17678-0.0589-0.0589-0.10224-0.13951-0.17678-0.17678-0.0527-0.0264-0.15042 0.0527-0.17678 0-0.0572-0.11436 0.0635-0.6436 0-0.7071-0.0417-0.0417-0.13511 0.0417-0.17677 0-0.0417-0.0417 0.0417-0.13511 0-0.17678-0.0417-0.0417-0.13511 0.0417-0.17678 0-0.0417-0.0417 0.0417-0.13511 0-0.17678-0.0417-0.0417-0.12207 0.0219-0.17678 0-0.24467-0.0979-0.4714-0.2357-0.7071-0.35355z" fill="#f00" stroke="#f00" stroke-width="1px"/>
  <path d="m33.941 222.46v8.7192c0 0.32294-0.10541 0.67996 0 0.96881 0.14907 0.40848 0.55804 0.56032 0.70711 0.96881 0.10541 0.28883-0.16667 0.74045 0 0.96878 0.16667 0.22835 0.54044-0.22833 0.70711 0 0.19382 0.26557-0.16574 4.1628 0 4.844 0.16667 0.68505 0.54044 1.2526 0.70711 1.9376 0.14907 0.61274-0.33333 1.4809 0 1.9376 0.16667 0.22833 0.54044-0.22836 0.70711 0 0.19348 0.26508-0.1918 3.3496 0 3.8752 0.14907 0.40848 0.6017 0.53554 0.70711 0.9688 0.13408 0.55112 0 3.9315 0 4.844 0 0.32294-0.16667 0.74044 0 0.9688 0.16667 0.22835 0.54044-0.22836 0.70711 0 0.16667 0.22835 0 0.64586 0 0.9688v5.8128 0.9688c0 0.32294-0.16667 0.74045 0 0.96879 0.23309 0.31936 2.3167-0.23368 2.8284 0 0.31623 0.14443 0.39088 0.82439 0.70711 0.96881 3.219 0 0.04044-0.4567 2.1213 0.96879 0.41721 0.28582 1.635-0.22212 2.1213 0 2.8284 1.2917 0.2357 0.32294 2.1213 2.9064 1.7861 2.4471 0.81514 0.37227 2.1213 0.9688 0.5 0.22834 0.91421 0.74045 1.4142 0.96879 0.44721 0.20425 0.94281 0 1.4142 0h3.5355 0.70711c0.2357 0 0.49629-0.14441 0.70711 0 0.29814 0.20425 0.40896 0.76455 0.70711 0.96881 0.44443 0.30445 2.384-0.30445 2.8284 0 2.9428 2.016-0.75592-0.0668 0.70711 1.9376 0.14456 0.19805 1.841-0.19207 2.1213 0 0.29814 0.20423 0.40896 0.76454 0.70711 0.96879 0.21082 0.14443 0.4714 0 0.70711 0h1.4142 4.2426 19.799 9.1924 0.70711c0.2357 0 0.54044 0.22834 0.70711 0 0.35355-0.48441-0.35356-2.422 0-2.9064 0.16666-0.22835 0.4835 0.10207 0.7071 0 0.5-0.22835 0.91422-0.74045 1.4142-0.96881 0.56915-0.25993 2.3766 0.30956 2.8284 0 0.29815-0.20423 0.40897-0.76456 0.70711-0.96879 0.65344-0.44765 2.3337 0.67777 2.8284 0 0.22153-0.30353-0.22062-4.5417 0-4.844 0.16666-0.22835 0.54044 0.22834 0.7071 0 0.16667-0.22835 0-0.64587 0-0.96881v-0.96879-6.7816-14.532-0.96881c0-0.32293 0.16667-0.74045 0-0.96881-0.37267-0.51059-1.0415-0.45819-1.4142-0.9688-0.14456-0.19804 0.14018-2.5223 0-2.9064-0.14907-0.40847-0.55803-0.56031-0.70711-0.96878-0.1054-0.28885 0.0572-0.65552 0-0.96881-0.18077-0.99072-0.43028-1.9582-0.7071-2.9064-0.57811-1.9801-1.4249-3.9045-2.1213-5.8128-0.23571-0.64587-0.54044-1.2526-0.70711-1.9376-0.0745-0.30636 0.10541-0.67996 0-0.9688-0.95415-2.6145-0.31694 0.0334-1.4142-0.9688-0.5547-0.50666-1.0142-1.2069-1.4142-1.9376-0.95671-1.7477-0.92041-3.7831-1.4142-5.8128-0.16667-0.68505-0.54044-1.2526-0.70711-1.9376-0.0917-0.377 0.10974-2.7561 0-2.9064-0.16666-0.22833-0.54044 0.22836-0.7071 0-0.16667-0.22833 0-0.64585 0-0.96878 0-0.64589 0.21082-1.3599 0-1.9376-0.10541-0.28882-0.54044 0.22836-0.70711 0-0.16667-0.22833 0.16667-0.74044 0-0.96879-0.16667-0.22835-0.54044 0.22835-0.70711 0-1.6583-2.272 2.1785 0 0.70711 0-0.52705 0-1.0415-0.4582-1.4142-0.9688-0.16667-0.22835 0-0.64586 0-0.9688v-0.9688c0 1.5348 0.21082 3.7729-0.70711 0-0.07454-0.30636 0.10541-0.67996 0-0.96879-0.14907-0.40849-0.4714-0.64587-0.70711-0.96881-0.2357-0.32294-0.40896-0.76455-0.70711-0.96879-0.21082-0.14442-0.70711 0.32293-0.70711 0 0-0.32294 0.70711 0.32293 0.70711 0 0-0.45671-0.55804-0.56033-0.70711-0.96881-0.21082-0.57768 0.33333-1.4809 0-1.9376-0.16667-0.22835-0.49629 0.14443-0.70711 0-2.9428-2.016 0.75592 0.0668-0.70711-1.9376-0.16667-0.22834-0.54044 0.22835-0.70711 0-0.16667-0.22834 0.16667-0.74045 0-0.96879-0.16667-0.22835-0.70711-0.32295-0.70711 0 0 0.45669 0.70711 1.4255 0.70711 0.96879 0-0.72209-0.33443-1.427-0.70711-1.9376-0.16667-0.22836-0.4714 0-0.70711 0h-1.4142-6.364c-0.2357 0-0.54044-0.22836-0.70711 0-0.16667 0.22835 0 0.64585 0 0.9688 0 0.32293 0.16667 0.74045 0 0.96879-0.16667 0.22835-0.54044-0.22834-0.70711 0-0.16667 0.22835 0.16667 0.74046 0 0.9688-0.21895 0.29998-3.3166-0.29998-3.5355 0-0.16667 0.22836 0.16667 0.74045 0 0.9688-0.33333 0.4567-1.2034-0.57768-1.4142 0-0.21082 0.57767 0.21082 1.3599 0 1.9376-0.0357 0.0978-2.0538 0-2.8284 0-2.156 0-0.0096 0.9819-0.70711 1.9376-0.21678 0.297-3.317-0.2994-3.5355 0-0.16667 0.22835 0.16667 0.74045 0 0.96881-0.21895 0.29997-3.3166-0.29999-3.5355 0-0.16667 0.22834 0.21082 0.82437 0 0.96879-0.16628 0.11387-2.3639 0-2.8284 0-0.5012 0-4.0598-0.12522-4.2426 0-0.29814 0.20425-0.40896 0.76456-0.70711 0.9688-0.3836 0.26277-2.6349-0.26508-2.8284 0-0.16667 0.22835 0.16667 0.74045 0 0.9688-0.16667 0.22835-0.4714 0-0.70711 0-0.26946 0-3.4669-0.094-3.5355 0-0.16667 0.22835 0.16667 0.74045 0 0.9688s-0.4714 0-0.70711 0c0 0.64587 0.21082 1.3599 0 1.9376-0.10541 0.28884-0.49629-0.14441-0.70711 0-0.29814 0.20424-0.55804 0.56032-0.70711 0.96881-0.10541 0.28883 0.16667 0.74045 0 0.96878-0.16667 0.22836-0.49629-0.1444-0.70711 0-0.29814 0.20426-0.40896 0.76457-0.70711 0.96881-0.63246 0.43327-1.4889-0.43326-2.1213 0-0.21082 0.14442 0.16667 0.74045 0 0.9688-0.14456 0.19806-1.841-0.19206-2.1213 0-0.29814 0.20424-0.40896 0.76456-0.70711 0.96881-0.42164 0.28883-0.967-0.20425-1.4142 0-0.5 0.22834-0.91421 0.74046-1.4142 0.96879-0.48637 0.22213-1.7041-0.28581-2.1213 0-0.29814 0.20424-0.40896 0.76456-0.70711 0.96881-0.21082 0.14441-0.6017-0.28885-0.70711 0-0.21082 0.57767 0.21082 1.3599 0 1.9376-0.10541 0.28884-0.54044-0.22834-0.70711 0-0.16667 0.22835 0.10541 0.67996 0 0.9688-0.14907 0.40848-0.55804 0.56031-0.70711 0.96881-0.2837 0.77737 0.23659 2.096 0 2.9064-0.39148 1.3409-0.94281 2.5834-1.4142 3.8752z" fill="#a40" stroke="#a40" stroke-width="1.171"/>
 </g>
</svg>
