<svg width="331.31" height="272.48" version="1.1" viewBox="0 0 331.31 272.48" xmlns="http://www.w3.org/2000/svg">
 <path d="m104.76 151.79c-3.5409-4.8299-0.16927-4.1975-3.0908-8.5583-3.2597-4.5693-4.9937-9.8885-5.6226-10.542-3.5839-3.7248-8.8957-15.101-10.549-24.547-0.55968-3.1979-0.7-6.1745-0.21193-8.558 1.3318-6.504 1.6685-12.207-0.11131-14.829-1.379-2.0316-2.1704-5.2541-2.1472-9.5673 0.0169-3.1537 0.56654-5.597 1.9282-8.7906 0.9288-2.1783 0.75161-4.2002 0.80392-6.9483 0.0777-4.0825 0.47979-8.8927 1.2378-12.92 1.0124-5.3781-2.5013-11.076-2.2514-13.555 1.0999-10.916 12.305-20.724 14.997-22.224 7.4798-4.1673 17.703-10.771 24.692-10.755 17.04 0.04 39.306 0.9374 46.86 4.5038 6.0632 2.8626 12.124 7.8141 16.847 11.197 7.3469 5.2616 12.064 8.8472 13.193 11.22 5.31 11.153 12.566 22.694 13.654 32.263 1.1696 10.282 1.8376 19.003 0.51 24.16-2.614 10.154-5.039 15.993-12.153 26.309-1.0944 1.5868-5.366 4.1198-6.043 6.1426-0.78469 2.3447-2.2187 7.2022-2.8198 13.125-0.48694 4.7983-0.20724 10.369-0.33373 15.29-0.20891 8.1269 0.70694 16.345 3.0085 25.075 1.2537 4.7555 2.5644 10.142 8.7787 12.384 5.2019 11.659-2.9069 25.688-9.1401 34.749-10.551 7.7245-21.688 14.181-27.604 13.858-10.815-0.5898-22.145-0.5908-23.284-1.6087-4.5467-4.0632-34.258-4.515-31.48-40.115 0.17285-2.2155 4.9944-5.1244 6.1775-5.5553 1.6435-0.5987 0.62201 1.9541 0.31406-0.3069-0.15728-1.1547-0.42442-21.635-1.674-21.872-3.0537-0.5795-8.8279-1.8272-10.37-3.0553-2.7417-2.1832-3.0836-3.3736-4.1153-5.969z" fill="#ae805c" fill-opacity=".47674" style="paint-order:fill markers stroke"/>
 <g>
  <path d="m124.43 2.9016e-5c-6.9888-0.016-17.212 6.5886-24.691 10.756-2.6923 1.4999-13.898 11.306-14.998 22.223-0.24983 2.4794 3.2644 8.1786 2.252 13.557-0.23705 1.2592 2.8091-4.7504 3.8577-6.3656 2.7072-4.1703 13.177-8.5259 16.352-10.333 0.76188-0.4336 12.904-3.9768 18.475-4.4547 10.376-0.4461 20.237 0.097 26.997 0.6848 4.3816 0.3811 6.3543 3.2959 7.1775 4.5087-0.3312 0.5864-5.041 21.716-5.041 18.266 0-0.01 5.9714 4.37 8.4994 8.2383 1.0822 1.656 4.3306 3.2385 7.2163 6.6214 0.8853 1.6274 0.30949 8.1444 0.58751 8.9967 2.0069 6.1522 1.0767 9.5379 5.2429 10.89 0.24891 0.6934 1.8586 2.2123 2.4356 5.4552 1.2936 0.944 2.74-4.0467 3.4688-5.9872 1.6354-4.354 1.7226-3.9558 5.4083-4.5617 2.2022-0.362 2.3862 0.2006 4.2018-0.461 4.6512-1.6948 3.539-3.0896 6.3991-3.4515 5.6982-0.721 5.2354-0.2984 7.9876 0.8807 4.147 7.7239 8.7954 13.528-1.364 32.807 5.1409-8.7114 8.3679-16.257 10.6-24.926 1.3276-5.1568 0.65787-13.878-0.51171-24.16-1.0884-9.5689-8.3424-21.109-13.652-32.262-1.1297-2.3729-5.8465-5.9591-13.193-11.221-4.7231-3.3825-10.784-8.3347-16.848-11.197-7.5539-3.5664-29.82-4.4639-46.859-4.5039z" fill-opacity=".72868" style="paint-order:fill markers stroke"/>
  <g fill-opacity=".43137">
   <path d="m123.72 124.84c-3.8379 0.6517-8.4578 3.5054-5.7362 2.8442 4.6126-3.5183-2.1523-0.6626-6.8549 1.3471-0.48807 2.3835-9.1127-1.6075-8.553 1.5904 0 0 2.0212 3.2962 4.4815 4.9985 0.62888 0.6536-1.4568 1.7022-3.5903 6.2715-10.351-14.873-10.834-14.294-10.834-14.294 0.28249 0.8988 1.6924 2.8599 1.7584 2.9645 0.17801 0.2821 1.529 1.9442 1.7984 2.3376 0.68591 1.0014 1.7869 3.97 2.8339 5.8819 0.45897 0.8381 1.0376 1.9452 1.6433 2.9326 0.94732 1.5442 1.8798 2.877 1.9015 3.0536 0.24658 2.0081 0.23774 4.4226 1.3227 5.5963 0.42742 0.4623 0.45346 1.3071 0.86795 1.4343 1.0318 2.5954 1.3735 3.7855 4.1152 5.9687 1.6074 1.3323 9.7058 3.6 11.495 2.1558 10.702-2.7832 13.052-2.7538 25.574-8.0784 10.799-3.7878 17.905-9.9854 32.052-20.87 1.0318-5.0145 3.2154-14.074 2.6966-21.111 0 0 1.3645-26.092 0.27255-26.147l-8.0224-2.6066c-1.1192 5.1879-0.76127 11.36-3.3575 15.564-4.2556 2.885-23.265 13.59-23.265 13.59 0 2.8846 3.6732 8.4511 6.0436 11.093 5.3027 5.9107-4.0316 4.0647-8.6032 3.1723-2.2154 0.8514-3.1546 4.0134-4.4725 5.5634-2.1581 2.5382-5.1347 4.7681-7.0167 5.9135-1.1338 0.6901-2.672 0.2438-5.7242-1.6318-3.018-1.8547-0.42757-6.5815-2.8256-9.5349z" style="paint-order:fill markers stroke"/>
   <path d="m109.63 107.37 10.208-0.9349 9.4166-0.4952c2.1108-0.1109 11.56 3.9766 10.765 11.202-0.51897 4.7201-2.6474 1.1701-4.9375-1.1861-1.4247-1.4657-3.2401-2.131-3.444-2.3892-2.0909-2.648-4.2487-0.4675-8.0669-1.4363-2.2886-0.5807-7.5771 0.4379-10.249 0.4182-2.0101-0.015-6.9372 1.891-8.6518 2.3734-1.8852 0.5303-4.135 1.6026-5.3391 3.0961-1.4462 1.7937-0.7988 6.6773-1.0353 10.165l-0.26546 2.2271s-2.6258-4.3118-3.4369-8.1249c-0.2481-1.1664 0.61676-4.8252 0.61676-4.8252 1.8405-1.6983 2.37-4.8737 4.0456-6.2828 0.75332-0.6335 2.3096-0.3931 3.9407-0.9492 3.114-1.0617 6.6541-2.7294 6.4334-2.8582z" style="paint-order:fill markers stroke"/>
   <path d="m116.46 58.915c4.3048-1.6504 8.0668-3.9521 13.763-3.9325 1.0564 0 12.688 2.318 14.266 3.2144 2.4847 1.4117 4.7656 3.7405 6.8266 7.059 0.726 1.9158 0.76116 2.4486-0.19415 1.9977-2.4372-1.1504-4.556-2.3782-6.5494-3.4875-6.8771-3.8268-12.261-6.2433-24.068 0.7909-0.22184 0.1322-7.4123 5.068-9.3224 3.3024l-0.22471-4.6063c2.1348-2.8265 4.5159-3.9599 5.5022-4.3381z" style="paint-order:fill markers stroke"/>
   <path d="m84.952 66.402c-1.3617 3.1936-1.7519 5.5579-1.7688 7.3609 0.31867-3.6575 1.9076-1.9283 4.5546-2.3826 1.1344 0.2221 5.6432 2.4878 6.5143 0.9933 0.67326-1.1552 2.2619-4.1207 1.2717-4.4886-3.6192-3.0904-8.3615-1.5224-10.572-1.483z" style="paint-order:fill markers stroke"/>
  </g>
 </g>
 <path d="m143.4 50.26c-0.4712 0.018-0.9777 0.056-1.5078 0.1055-1.441 0.1358-3.0577 0.3734-4.627 0.6035-0.1628 0.024-0.3267 0.045-0.4883 0.068-1.1449 0.168-2.2524 0.3279-3.2304 0.4394-0.4893 0.056-0.9474 0.099-1.3614 0.125-0.413 0.026-0.7839 0.037-1.0996 0.024-1.2826-0.053-2.5894 0.01-3.8984 0.1562-1.3091 0.1512-2.6208 0.3952-3.9121 0.7129-2.5826 0.6355-5.0856 1.5669-7.332 2.6426-1.1233 0.5378-2.1814 1.1118-3.1543 1.7031-1.9453 1.1823-3.5458 2.4337-4.625 3.6035-0.2698 0.2926-0.5072 0.5795-0.709 0.8594-0.2026 0.2807-0.3694 0.5531-0.4981 0.8164-0.389 0.7961-0.9272 1.5577-1.4218 2.125-4e-4 4e-4 3e-4 0 0 0-0.247 0.2829-0.4839 0.5181-0.6856 0.6836-0.2021 0.1658-0.3697 0.2618-0.4785 0.2695-0.5155 0.037-1.1398 0.1858-1.8145 0.4004-0.6746 0.2147-1.3997 0.4961-2.1191 0.7988-1.4388 0.6055-2.8524 1.2961-3.7832 1.7129-0.3329 0.1491-0.7205 0.1336-1.0352 0.082-0.3146-0.051-0.5561-0.1392-0.5957-0.1367-0.55 0.032-1.1529-0.2143-1.7109-0.5312s-1.0711-0.7051-1.4434-0.9571c-0.2481-0.168-0.4335-0.2756-0.5273-0.2617-0.4521 0.067-0.7543 0.053-1.0352 0.01-0.4212-0.07-0.7932-0.2119-1.5429-0.2539-0.7497-0.042-1.8778 0.015-3.8125 0.3418-0.6764 0.2298-1.206 0.4087-1.7383 0.6152-1.0647 0.4129-2.1383 0.9367-4.4043 2.1953-1.133 0.6294-2.5637 1.4419-4.4414 2.5176-3.8844 3.3344-4.6775 6.8567-4.5586 10.396 0.072 2.1237 0.4708 4.2545 0.7285 6.3535 0.2437 0.7195 0.5015 1.3973 0.7617 2.0293 0.5205 1.264 1.0534 2.3436 1.5215 3.1973 0.4681 0.8536 0.8712 1.4807 1.1289 1.8437 0.3866 0.5444 0.4471 0.4923-0.084-0.293 0.8083 1.0049 1.3163 1.7848 1.877 2.4766 0.1868 0.2306 0.3799 0.452 0.5918 0.668 0.8477 0.8633 2.0012 1.6505 4.3008 2.6816 0.112 0.05 0.2995 0.08 0.5429 0.094 0.2431 0.014 0.5432 0.012 0.8809 0 0.3378-0.016 0.7149-0.045 1.1113-0.084 1.1914-0.1173 2.5664-0.3246 3.6328-0.5313 0.711-0.1378 1.2857-0.2754 1.5782-0.3867 0.5054-0.1924 1.0022-0.4135 1.4628-0.6406 0.4612-0.2275 0.8869-0.4614 1.2481-0.6836 0.3611-0.2222 0.6592-0.4327 0.8652-0.6094 0.1026-0.088 0.1824-0.1671 0.2364-0.2363 5e-4 -7e-4 -5e-4 0 0 0 0.054-0.069 0.082-0.1263 0.08-0.1718-0.03-0.6742-0.047-1.3384-0.041-1.8907-2.122 1.5602-7.2804 5.2663-10.453 4.2051-4.7906-1.6024-6.2149-4.3233-7.9649-6.9141-0.6713-1.2565-1.4484-2.827-2.1289-4.8359-0.5321-3.3369-1.3261-6.379-0.3691-9.3828 1.1689-5.442 3.9417-6.1719 5.6895-7.5938 2.9407-1.5727 6.6469-3.348 8.8867-3.4492 1.3439-0.061 2.7 0.1318 3.9316 0.5801 2.8549 1.0391 4.465 4.0954 5.7481 6.6953 1.3435 2.7224 1.4618 5.0323 1.4589 7.7754 0.6131-1.2025 1.2107-2.3866 1.668-3.3301 0.01-0.011 0.01-0.018 0.014-0.029 0.038-0.078 0.056-0.1232 0.092-0.1972 0.1738-0.3621 0.3359-0.7035 0.4512-0.9629 0.1444-0.3275 0.2468-0.5814 0.2656-0.6856 0.069-0.3843 0.081-0.7412 0.059-1.0761-1e-4 -7e-4 0 0 0 0-0.023-0.3355-0.081-0.6482-0.1485-0.9473-0.1352-0.598-0.3122-1.1369-0.3398-1.6679-0.046-0.8948 0.052-1.9476 0.2891-2.6446 0.095-0.2788 0.2124-0.5004 0.3515-0.6328 0.07-0.066 0.1442-0.1096 0.2246-0.1269 0.6923-0.149 1.3731-0.4131 2.002-0.7071 0.4525-0.2114 0.8825-0.4364 1.2519-0.6543 1e-3 -5e-4 1e-3 0 0 0 0.4414-0.2605 0.8078-0.5043 1.0644-0.6836 0.2567-0.1793 0.4024-0.293 0.4024-0.293 0.031-0.052 0.055-0.087 0.074-0.1035 0.019-0.017 0.033-0.016 0.041 0 0.016 0.031 0.013 0.1202 0 0.2559-0.089 0.8165-0.6333 3.2912-0.1875 4.2968 0.4606 1.0392 1.0292 2.1336 1.6445 3.211 4e-4 8e-4 0 0 0 0 0.3076 0.5383 0.6275 1.0734 0.9512 1.5957 3e-4 5e-4 -3e-4 0 0 0 0.648 1.0457 1.3133 2.042 1.9356 2.9219 0.3112 0.4401 0.6122 0.8515 0.8945 1.2246 0.5645 0.7462 1.056 1.3408 1.4141 1.7168 0.4746 0.4984 0.7935 0.8149 1.0312 1.0371 0.2379 0.222 0.3932 0.3509 0.5449 0.4707 0.3036 0.2404 0.5851 0.4486 1.4493 1.3262 0.4469 0.4539 0.8594 0.7732 1.2324 0.998 4e-4 3e-4 0-2e-4 0 0 1.1194 0.6728 1.8906 0.4995 2.2207 0.5899 0.2328 0.064 0.4966 0.1119 0.7871 0.1445 0.5811 0.065 1.2691 0.07 2.0274 0.027 3.4122-0.1931 8.2575-1.3709 11.277-2.5527 1.0054-0.3935 1.8084-0.7884 2.2891-1.1465 9e-4 -6e-4 0 0 0 0 0.1602-0.1195 0.2834-0.2336 0.3672-0.3438 0.6562-0.8623 1.3912-1.8104 2.1211-2.8105 0.1505-0.2063 0.296-0.4225 0.4453-0.6329 0.5742-0.8089 1.1397-1.6379 1.6426-2.4863 0.4262-0.7189 0.8061-1.4452 1.125-2.1699 0.037-0.084 0.078-0.1683 0.1133-0.252 2e-4 -5e-4 -2e-4 0 0 0 0.031-0.074 0.056-0.1468 0.086-0.2207 0.1601-0.4011 0.2969-0.8007 0.4082-1.1973 0.017-0.062 0.041-0.124 0.057-0.1855 1e-4 -7e-4 -2e-4 0 0 0 0.069-0.2652 0.1247-0.5274 0.1679-0.789 0.087-0.5233 0.1188-1.0386 0.086-1.5411-0.229-3.5108-0.3574-6.9416-0.3653-9.6269-0.01-2.6853 0.1049-4.6252 0.3594-5.1563 0.2257-0.4713 0.4882-0.8872 0.793-1.1933 0.304-0.3054 0.6489-0.5018 1.041-0.5332 0.01-7e-4 0.018 0 0.027 0 0.1234-0.01 0.2501 0 0.3828 0.025 0.1413 0.028 0.2872 0.076 0.4394 0.1465 2.6328 1.2251 5.9599 2.808 9.4903 4.4961 8.8259 4.22 18.911 9.0963 22.527 10.686 4e-4 2e-4 0-1e-4 0 0 0.7217 0.3171 1.1864 0.5042 1.3301 0.5274 0.4458 0.072 0.8773 0.1507 1.2949 0.2344 1.2531 0.2509 2.3829 0.5516 3.4063 0.8867 1.3646 0.4468 2.5396 0.9543 3.5664 1.4863 5e-4 3e-4 0-2e-4 0 0 0.5128 0.2657 0.988 0.5374 1.4316 0.8106 5e-4 2e-4 0-3e-4 0 0 1.3315 0.82 2.3742 1.6541 3.2636 2.375 0.2077 0.1683 0.9655 0.4727 1.6172 1.1894 0 0 0.978-0.3611 1.8399-1.0059 0.037-0.028 0.062-0.028 0.084-0.021 0.014 0 0.024 0.01 0.033 0.016 0-0.01 0-0.01-0.01-0.018-0.1112-0.3252-0.4161-0.7528-0.8672-1.2519-0.2255-0.2496-0.4882-0.517-0.7812-0.7989-0.293-0.2818-0.616-0.578-0.9649-0.8847-4.1868-3.6812-11.978-8.886-13.324-9.1895 0 0-18.133-8.3085-28.008-12.432-3.2917-1.3743-5.665-2.2843-6.1445-2.2657zm-15.006 3.4043c3.6872-0.1365 7.1207 1.3223 8.5469 4.6133 1.0028 2.3141 2.0958 10.008 1.1211 14.484-1.5114 6.9404-4.4482 12.185-13.875 13.562-2.6739 0.3907-5.8495 0.254-8.1309-1.1895-5.3585-3.3905-8.6083-11.169-9.1191-15.998-0.3201-3.0253 1.234-6.0725 3.1914-7.998 1.4035-1.3806 2.2922-1.6828 4.7715-3.2696 1.9951-1.2769 7.5112-2.8148 9.7871-3.5449 1.2201-0.3914 2.478-0.6147 3.707-0.6602zm-31.412 29.447c-1.5555 2.8846-3.0195 5.832-3.0195 5.832s1.5471-2.9463 3.0195-5.832z" fill="#fff" style="paint-order:fill markers stroke"/>
 <path d="m111.42 189.05c-3.2701 0.2927-8.8394 3.5319-11.211 4.3862-4.0491 1.4586-13.235 2.126-18.797 2.881-7.8198 1.0616-5.9574 1.8874-5.9574 1.8874-3.9504-0.091-24.713 7.0632-33.854 12.199-6.4082 3.6004-20.272 4.0005-28.109 23.265l-8.5 20.744c-0.90702 2.2136-6.8238 18.07-4.4316 18.068l330.26-0.25c2.3921 0-4.8554-12.579-6.1836-14.568-13.387-20.054-17.773-28.714-31.91-43.436-19.532-8.7677-41.123-15.475-61.84-23.058-6.2785-2.2981-11.225-6.7766-17.13-8.4523-1.1956-0.3392-2.7909-1.8619-4.2427-2.8492-1.712-0.891-6.3559-2.9479-9.1353-2.3298 0.39331 0.5588 1.3069 1.6953 1.9144 2.0629 0.9523 0.8913 2.1688 1.5375 3.6341 2.066 5.2019 11.659-2.9067 25.687-9.1399 34.748-10.551 7.7245-21.688 14.182-27.604 13.859-10.815-0.5898-22.367-0.4589-23.506-1.4768-4.5467-4.0632-33.932-4.7779-31.155-40.378 0.17285-2.2155 4.8898-4.9938 6.0729-5.4247 0.14364-0.052 0.26005-0.075 0.36524-0.084-0.0159-0.081-0.0373-0.1237-0.0508-0.2227l-0.15697-0.9465c-3.6642 0.9853-6.5237 2.049-9.3352 7.3079z" fill="#f9f9f9" fill-opacity=".72093" stroke-width="0" style="paint-order:fill markers stroke"/>
 <g stroke="#000" stroke-width="1px">
  <path d="m36.5 215.48c0-2.1667 0.66667-2-0.5-2-0.16667 0-0.54042-0.16169-0.5 0 0.18078 0.7231 1 1.2546 1 2 0 0.89752-0.71618 1.6485-1 2.5-0.10541 0.31622 0 0.66666 0 1v3 9.5 3c0 0.32855-0.09403 1.2179 0 1.5 0.11785 0.35355 0.36159 0.65397 0.5 1 0.19574 0.48935 0.30426 1.0106 0.5 1.5 0.13841 0.34602 0.40961 0.63845 0.5 1 0.08084 0.32338 0 0.66666 0 1v1 5 1.5c0 0.16666-0.05271 0.34188 0 0.5 0.11785 0.35355 0.40961 0.63845 0.5 1 0.11332 0.45327 0 1.9192 0 2.5v6.5c0 0.33333-0.10541 0.68377 0 1 0.11785 0.35355 0.40961 0.63845 0.5 1 0.08084 0.32338 0 0.66666 0 1v1.5 4.5 4.5 0.5c0 0.16666-0.11785 0.38214 0 0.5 0.11785 0.11785 0.33333 0 0.5 0h0.5c0.5 0 1.0149 0.12126 1.5 0 2.4145-0.60362-0.02478-0.23761 1.5-1 0.14907-0.0745 0.35093 0.0745 0.5 0 0.21082-0.10541 0.28918-0.39459 0.5-0.5 0.14907-0.0745 0.38215 0.11785 0.5 0 0.11785-0.11786-0.11785-0.38215 0-0.5 0.11785-0.11786 0.33333 0 0.5 0h1 3 11.5 1.5c0.16667 0 0.42546 0.14907 0.5 0 0.14907-0.29815 0.08084-0.67662 0-1-2.2498-8.9994 0.1889 0.97223-2-4.5-0.45063-1.1266-0.53333-2.38-1-3.5-0.37378-0.89707-1.0654-1.6308-1.5-2.5-0.40139-0.80278-0.63548-1.6798-1-2.5-0.30272-0.68112-0.73829-1.3021-1-2-0.24129-0.64343-0.19268-1.3854-0.5-2-0.78558-1.5712-1.167-0.33517-1.5-2-0.09806-0.49029 0-1 0-1.5v-3.5-11-4c0-0.5 0.0822-1.0068 0-1.5-0.20928-1.2557-0.60371-2.3111-1-3.5-0.16667-0.5-0.38567-0.98551-0.5-1.5-0.49235-2.2156-0.33588-3.0076-1-5-0.11785-0.35356-0.42691-0.63456-0.5-1-0.13074-0.65372 0-1.3333 0-2 0-0.16667 0.11785-0.38215 0-0.5-0.11785-0.11786-0.38215 0.11785-0.5 0-0.2357-0.23571 0.2357-0.7643 0-1-0.11785-0.11786-0.38215 0.11785-0.5 0-0.11785-0.11786 0-0.33334 0-0.5v-3.5c0-0.16667 0.14907-0.42547 0-0.5-2.6667-1.3333 0.33333 1.6667-1-1-0.04128-0.0826-1.367 0-1.5 0h-5.5-0.5c-0.16667 0-0.38215-0.11786-0.5 0-0.11785 0.11785 0.11785 0.38214 0 0.5-0.11785 0.11785-0.38215-0.11786-0.5 0-0.13681 0.13681 0.13562 1.7288 0 2-0.10541 0.21081-0.39459 0.28918-0.5 0.5-0.13562 0.27124 0.13681 1.8632 0 2-0.11785 0.11785-0.38215-0.11786-0.5 0-0.2357 0.2357 0.32338 0.91915 0 1-0.64676 0.16169-1.3333 0-2 0z"/>
  <path d="m75.46 198.21c-0.81987 1.759-1.7975 3.4528-2.4596 5.277-0.17058 0.47 0 1 0 1.5v3 7 12.5 4c0 1-0.0995 2.005 0 3 0.06838 0.68377 0.40282 1.3197 0.5 2 0.16499 1.1549-0.14471 2.3423 0 3.5 0.08523 0.68187 0.40282 1.3197 0.5 2 0.07071 0.49497 0 1 0 1.5v1.5 9 3c0 0.22517-0.07608 1.3478 0 1.5 0.10541 0.21081 0.39459 0.28918 0.5 0.5 0.07454 0.14907-0.11785 0.38214 0 0.5 0.11785 0.11785 0.42546-0.14908 0.5 0 0.14907 0.29814-0.14907 0.70185 0 1 0.07454 0.14907 0.38215-0.11786 0.5 0 0.11785 0.11785-0.07454 0.35092 0 0.5 0.10541 0.21081 0.39459 0.28918 0.5 0.5 0.15713 0.31426-0.15713 1.6857 0 2 0.10541 0.21081 0.42546 0.27639 0.5 0.5 0.10541 0.31622 0 0.66666 0 1 0 0.16666 0.16667 0.5 0 0.5s0-0.66667 0-0.5v1 3c0 0.18361-0.02012 1.9799 0 2 0.38166 0.38165 0.88284-0.4219 1-0.5 0.31009-0.20673 0.65746-0.3532 1-0.5 0.82496-0.35356 1.6798-0.63548 2.5-1 2.4645-1.0953 1.6062-1.1785 4.5-1.5 0.66259-0.0736 1.3333 0 2 0h5.5c0.18362 0 1.9799 0.0201 2 0 0.11785-0.11786 0.16667-0.5 0-0.5-0.2357 0-0.66667 0.66666-0.5 0.5 0.33333-0.33334 0.73851-0.60777 1-1 0.1849-0.27735-0.2357-0.7643 0-1 0.26352-0.26353 0.79328-0.18992 1-0.5 0.1849-0.27735 0-0.66667 0-1 0-0.5-0.0822-1.0068 0-1.5 0.76352-4.5811 0.5 2.6488 0.5-4v-7.5-2.5c0-0.66667 0.23408-1.3758 0-2-0.2926-0.78028-1.1273-1.2546-1.5-2-0.14907-0.29815 0.08084-0.67662 0-1-0.09039-0.36155-0.33333-0.66667-0.5-1-0.16667-0.5-0.39664-0.98319-0.5-1.5-0.13074-0.65372 0.16169-1.3532 0-2-0.55744-2.2298-0.63424 0.42605-1-2.5-0.10336-0.8269 0.10336-1.6731 0-2.5-0.06537-0.52298-0.41335-0.98013-0.5-1.5-0.0822-0.4932 0-1 0-1.5-0.16667-0.5-0.39664-0.98319-0.5-1.5-0.13074-0.65372 0.16169-1.3532 0-2-0.09039-0.36155-0.38215-0.64645-0.5-1-0.05271-0.15812 0-0.33334 0-0.5v-1-3.5-4c0-0.5 0.0822-1.0068 0-1.5-0.60541-3.6325-0.5 0.17573-0.5-2.5v-7.5c0-0.33334 0.2357-0.7643 0-1-0.2357-0.23571-0.70186 0.14907-1 0-0.14907-0.0745 0.11785-0.38215 0-0.5-0.11785-0.11786-0.33333 0-0.5 0-0.16667-0.16667-0.36926-0.30389-0.5-0.5-0.41345-0.62018-0.58655-1.3798-1-2-0.26149-0.39224-0.78918-0.57837-1-1-0.07454-0.14908 0.07454-0.35093 0-0.5-0.10541-0.21082-0.39459-0.28919-0.5-0.5-0.07454-0.14908-0.16667-0.5 0-0.5s0 0.66666 0 0.5v-4-0.5c0-0.16667 0.11785-0.38215 0-0.5-0.11785-0.11786-0.33333 0-0.5 0h-4-0.5c-0.16667 0-0.38215-0.11786-0.5 0-0.2357 0.2357 0.2357 0.76429 0 1-0.2357 0.2357-0.85093-0.29815-1 0 0 2.8333 0.33333 0.16666-0.5 1-0.11785 0.11785 0.14907 0.42546 0 0.5-2.8333 0-0.16667-0.33334-1 0.5-0.11785 0.11785-0.38215-0.11786-0.5 0-0.11785 0.11785 0.11785 0.38214 0 0.5-0.11785 0.11785-0.5 0.16666-0.5 0 0-0.16667 0.5-0.16667 0.5 0 0 0.2357-0.39459 0.28918-0.5 0.5-0.07454 0.14907 0.15938 0.54874 0 0.5-0.90632-0.27721-1.6936-0.85134-2.5404-1.277"/>
  <path d="m144.5 228.48v10c0 1-0.17889 2.0161 0 3 0.16055 0.88305 0.76384 1.6341 1 2.5 1.7037 6.247-0.0531 0.62801 0.5 4.5 0.0972 0.68027 0.41477 1.3181 0.5 2 0.0827 0.66151 0 1.3333 0 2v6 4.5c0 0.26146-0.0657 1.8685 0 2 0.10541 0.21081 0.42546 0.27639 0.5 0.5 0.15811 0.47434 0 1 0 1.5v3c0 0.5-0.22361 1.0528 0 1.5 0.0745 0.14907 0.33333 0 0.5 0h2 10.5 3c0.16667 0 0.38215-0.11786 0.5 0 0.11785 0.11785-0.11785 0.38214 0 0.5 0.11785 0.11785 0.33333 0 0.5 0h0.5 0.5-1 2c0.33333 0 0.8151 0.27735 1 0 0.3666-0.54991-0.38258-3.2652-0.5-3.5-0.21082-0.42164-0.82492-0.56232-1-1-0.1857-0.46424 0.0981-1.0097 0-1.5-0.0731-0.36544-0.40961-0.63845-0.5-1-0.0808-0.32338 0-0.66667 0-1 0-0.87895 0.13039-2.2177 0-3-0.13471-0.80827-1.4097-3.6386-1.5-4-0.28583-1.1433-0.235-2.3517-0.5-3.5-1.2457-5.3979-0.81187-0.68311-1.5-5.5-0.0471-0.32999 0-0.66667 0-1v-3c0-0.33334 0.10541-0.68378 0-1-0.2357-0.70711-0.72318-1.308-1-2-0.19574-0.48935-0.33333-1-0.5-1.5s-0.39664-0.98319-0.5-1.5c-0.0654-0.32686 0-0.66667 0-1v-2.5-1-0.5 1-1.5c0-0.16667 0.11785-0.38215 0-0.5-0.11785-0.11786-0.38215 0.11785-0.5 0-0.0161-0.0161 0-1.3787 0-1.5v-0.5c0-0.16667 0.14907-0.42547 0-0.5-0.29814-0.14908-0.70186 0.14907-1 0-0.14907-0.0745 0.11785-0.38215 0-0.5-0.11785-0.11786-0.33333 0-0.5 0h-0.5-5.5-4-0.5c-0.16667 0-0.5 0.16666-0.5 0 0-0.16667 0.33333 0 0.5 0" fill="#333"/>
 </g>
 <g stroke="#000" stroke-width="1px">
  <path d="m111.42 189.05c-0.64157 1.3105-1.4744 2.5437-1.9247 3.9316-0.20576 0.63412 0 1.3333 0 2v2 6 21.5 4.5c0 0.66666-0.11926 1.3441 0 2 0.21705 1.1938 0.78295 2.3062 1 3.5 0.23851 1.3118-0.16538 2.677 0 4 0.0852 0.68187 0.40282 1.3197 0.5 2 0.16333 1.1433-0.16333 2.3567 0 3.5 0.0745 0.52175 0.41335 0.98012 0.5 1.5 0.0822 0.49319-0.0981 1.0097 0 1.5 0.0731 0.36544 0.33333 0.66666 0.5 1 0 0.5-0.0707 1.005 0 1.5 0.99241 6.9469-0.0254-1.1014 1 3 0.0983 0.3933 0 2.48 0 3v5c0 0.12126-0.0161 1.4839 0 1.5 0.11785 0.11785 0.38215-0.11786 0.5 0 0.15482 0.15482-0.15482 2.3452 0 2.5 0.26352 0.26352 0.73648 0.23647 1 0.5 0.2357 0.2357-0.14907 0.70185 0 1 0.10541 0.21081 0.39459 0.28918 0.5 0.5 0.14751 0.29501-0.11464 1.1561 0 1.5 0.11785 0.35355 0.38215 0.64644 0.5 1 0.0649 0.19456-0.0776 1.4224 0 1.5 0.11785 0.11785 0.38215-0.11786 0.5 0 0.11785 0.11785 0 0.33333 0 0.5v0.5 2 0.5c0 0.16666 0.16667 0.5 0 0.5s-0.16667-0.5 0-0.5c0.2357 0 0.2643 0.5 0.5 0.5 0.16667 0-0.11785-0.38215 0-0.5 0.11785-0.11786 0.33333 0 0.5 0h7.5c0.12126 0 1.4839 0.0161 1.5 0 0.11785-0.11786 0-0.33334 0-0.5v-4-0.5c0-0.16667-0.14907-0.42547 0-0.5 0.29814-0.14908 0.7643 0.2357 1 0 0.2357-0.23571 0-0.66667 0-1v-0.5-3.5-10-5.5-1c0-0.33334 0.0808-0.67662 0-1-0.0904-0.36155-0.40961-0.63845-0.5-1-0.0808-0.32338 0-0.66667 0-1v-1.5c0-0.33334 0.0808-0.67662 0-1-0.0904-0.36155-0.40961-0.63845-0.5-1-0.17027-0.68107 0.20163-2.3951 0-3-0.0745-0.22361-0.39459-0.28919-0.5-0.5-0.14907-0.29815 0.14907-0.70186 0-1-0.10541-0.21082-0.39459-0.28919-0.5-0.5-0.0745-0.14908 0-0.33334 0-0.5 0-0.33334 0.1238-0.69051 0-1-0.22318-0.55795-0.69083-0.98471-1-1.5-0.19174-0.31957-0.40961-0.63845-0.5-1-0.12949-0.51795 0-1.4267 0-2v-4c0-0.34526 0.076-1.848 0-2-0.10541-0.21082-0.39459-0.28919-0.5-0.5-0.0745-0.14908 0.11785-0.38215 0-0.5-0.66667-0.66667-0.5 0.83333-0.5-0.5v-4-1-0.5c0 0.33333 0.33333 1 0 1-0.4714 0-0.60777-0.73852-1-1-0.13867-0.0925-0.33333 0-0.5 0h-0.5-0.5c0.33333 0 1.2357 0.2357 1 0-0.37268-0.37268-1.0286-0.2643-1.5-0.5-0.21082-0.10541-0.28918-0.39459-0.5-0.5-0.14907-0.0745-0.38215 0.11785-0.5 0-0.26352-0.26353-0.23648-0.73648-0.5-1-0.031-1.4079-1.1273-0.12733-1.5-0.5-0.11785-0.11786 0-0.33334 0-0.5v-0.5-0.5c0-0.16667 0.0745-0.35093 0-0.5-0.10541-0.21082-0.39459-0.28919-0.5-0.5-0.0745-0.14908 0-0.33334 0-0.5v-1c0-0.51997 0.0983-2.6067 0-3-0.0904-0.36155-0.42691-0.63456-0.5-1-0.034-0.1698 0.12305-2.1308 0-2.5-0.2357-0.70711-0.81922-1.2769-1-2-0.0808-0.32338 0.0808-0.67662 0-1-0.0904-0.36155-0.38215-0.64645-0.5-1-0.15814-0.47443 0.12911-1.4836 0-2-0.12783-0.51131-0.30426-1.0106-0.5-1.5-0.13841-0.34603-0.40961-0.63845-0.5-1-0.12949-0.51795 0-1.4267 0-2 0-0.16667 0.14907-0.42547 0-0.5-0.29814-0.14908-0.70186-0.14908-1 0-0.14907 0.0745 0 0.33333 0 0.5v3 8c0 0.12126-0.0161 1.4839 0 1.5 0.11785 0.11785 0.38215-0.11786 0.5 0 0.2357 0.2357-0.2357 0.76429 0 1 0.2357 0.2357 0.7643-0.23571 1 0 0.11785 0.11785-0.11785 0.38214 0 0.5 0.25 0.25 1.25-0.25 1.5 0 0.11785 0.11785-0.0527 0.34188 0 0.5 0.11785 0.35355 0.38215 0.64644 0.5 1 0.0527 0.15811-0.11785 0.38214 0 0.5 0.11785 0.11785 0.38215-0.11786 0.5 0 0.2357 0.2357-0.2357 0.76429 0 1 0.11785 0.11785 0.38215-0.11786 0.5 0 0.2357 0.2357-0.29814 0.85092 0 1 0.29814 0.14907 0.70186-0.14908 1 0 0.14907 0.0745-0.11785 0.38214 0 0.5 0.11785 0.11785 0.38215-0.11786 0.5 0 0.11785 0.11785-0.11785 0.38214 0 0.5 0.11785 0.11785 0.38215-0.11786 0.5 0 0.11785 0.11785-0.11785 0.38214 0 0.5 0.11785 0.11785 0.38215-0.11786 0.5 0 0.25 0.25-0.25 1.25 0 1.5 0.2357 0.2357 0.7643-0.23571 1 0 0.11785 0.11785-0.11785 0.38214 0 0.5 0.11785 0.11785 0.38215-0.11786 0.5 0 0.11785 0.11785 0.16667 0.5 0 0.5s0-0.33334 0-0.5v-1.5c0-0.22518 0.0761-1.3478 0-1.5-0.10541-0.21082-0.39459-0.28919-0.5-0.5-0.0745-0.14908 0.0745-0.35093 0-0.5-0.10541-0.21082-0.39459-0.28919-0.5-0.5-0.0745-0.14908 0-0.33334 0-0.5v-0.5c0-1.1726 0.11785 0.2357-0.5-1-0.14907-0.29815 0.2357-0.7643 0-1-0.11785-0.11786-0.38215 0.11785-0.5 0-0.11785-0.11786 0.11785-0.38215 0-0.5-0.11785-0.11786-0.38215 0.11785-0.5 0-0.11785-0.11786 0.14907-0.42547 0-0.5-2.8333 0-0.16667 0.33333-1-0.5-0.11785-0.11786-0.38215 0.11785-0.5 0-0.11785-0.11786 0.11785-0.38215 0-0.5-0.11785-0.11786-0.38215 0.11785-0.5 0-0.33333-0.33334 0.33333-0.66667 0-1-0.11785-0.11786-0.38215 0.11785-0.5 0-0.11785-0.11786 0.11785-0.38215 0-0.5-0.2357-0.23571-0.7643 0.2357-1 0-0.11785-0.11786 0-0.33334 0-0.5v-3c0-0.16667 0.11785-0.38215 0-0.5-0.11785-0.11786-0.38215 0.11785-0.5 0-0.12032-0.12032 0.12032-1.8797 0-2-0.11785-0.11786-0.42546 0.14907-0.5 0-0.14907-0.29815 0-0.66667 0-1 0-0.16667 0.11785-0.38215 0-0.5-0.11785-0.11786-0.5-0.16667-0.5 0 0 0.2357 0.33333 0.33333 0.5 0.5"/>
  <path d="m196.79 216.42c-0.93122 2.3553-2.1164 4.6254-2.7937 7.0658-0.26743 0.96357 0 2 0 3 0 2-0.12476 4.0039 0 6 0.0838 1.3411 0.29043 2.6727 0.5 4 0.29062 1.8406 0.73648 3.6553 1 5.5 0.23688 1.6581 0.15494 3.361 0.5 5 0.32573 1.5472 1.1379 2.9609 1.5 4.5 0.30776 1.308 0.19785 2.6907 0.5 4 0.20182 0.87454 0.71618 1.6485 1 2.5 0.21731 0.65192 0.25871 1.3566 0.5 2 0.26171 0.69789 0.66667 1.3333 1 2 0.16667 0.33333 0.40961 0.63845 0.5 1 0.0808 0.32338 0 0.66666 0 1v1.5 3c0 0.11881-0.056 1.8879 0 2 0.61785 1.2357 0.5-0.17259 0.5 1v2.5c0 0.16666-0.11785 0.38214 0 0.5 0.11785 0.11785 0.33333 0 0.5 0h0.5 7 2c0.16667 0 0.5-0.16667 0.5 0 0 0.16666-0.61785 0.11785-0.5 0 0.42492-0.42492 0.96252-0.73126 1.5-1 0.14907-0.0745 0.38215 0.11785 0.5 0 0.11785-0.11786 0-0.33334 0-0.5v-0.5-6-4c0-0.22518 0.0761-1.3478 0-1.5-0.26874-0.53749-0.69083-0.98471-1-1.5-0.43481-0.72469-1.1872-2.2179-1.5-3-0.19574-0.48935-0.39664-0.98319-0.5-1.5-0.0654-0.32686 0-0.66667 0-1 0-0.16667 0.0745-0.35093 0-0.5-0.10541-0.21082-0.39459-0.28919-0.5-0.5-0.14907-0.29815 0.0808-0.67662 0-1-0.30893-1.2357-0.48274-1.4655-1-2.5-0.16667-0.33334-0.40961-0.63845-0.5-1-0.0704-0.28167 0.0772-1.8842 0-2-0.20672-0.31009-0.79328-0.18992-1-0.5-0.13556-0.20334 0.13329-2.3667 0-2.5-0.11785-0.11786-0.42546 0.14907-0.5 0-0.14907-0.29815 0.0808-0.67662 0-1-0.0904-0.36155-0.42691-0.63456-0.5-1 0-2.8435 0.22361-0.32918-0.5-2.5-0.10541-0.31623 0-0.66667 0-1v-2.5c0-0.33334 0.0548-0.67121 0-1-0.11297-0.67784-0.31122-1.3393-0.5-2-0.14479-0.50677-0.41335-0.98013-0.5-1.5-0.0822-0.4932 0.0981-1.0097 0-1.5-0.0731-0.36544-0.40961-0.63845-0.5-1-0.0808-0.32338 0-0.66667 0-1v-2.5-2c0-0.5 0.0822-1.0068 0-1.5-0.0866-0.51988-0.39664-0.98319-0.5-1.5-0.13074-0.65372 0.16169-1.3532 0-2-0.0904-0.36155-0.40961-0.63845-0.5-1-4e-3 -0.0167 3e-3 -1.4974 0-1.5-0.66667-0.66667-0.5 0.83333-0.5-0.5v-0.5c0-0.16667 0.11785-0.38215 0-0.5-0.26352-0.26353-0.73648-0.23648-1-0.5-0.11785-0.11786 0.0527-0.34189 0-0.5-0.2357-0.70711-0.7643-1.2929-1-2-0.0527-0.15812 0.0745-0.35093 0-0.5-0.10541-0.21082-0.39459-0.28919-0.5-0.5-0.0745-0.14908 0-0.33334 0-0.5 0-0.16667-0.16667-0.5 0-0.5s0.11785 0.38214 0 0.5c-0.11785 0.11785-0.42546-0.14908-0.5 0 0 2.2761 0.2357 0.0286-0.5 1.5-0.0745 0.14907 0.11785 0.38214 0 0.5-0.11785 0.11785-0.38215-0.11786-0.5 0-0.11785 0.11785 0 0.33333 0 0.5-0.33333 0-0.70186-0.14908-1 0-0.14907 0.0745 0.11785 0.38214 0 0.5-0.11785 0.11785-0.38215-0.11786-0.5 0-0.25 0.25 0.25 1.25 0 1.5-0.11785 0.11785-0.38215-0.11786-0.5 0-0.11785 0.11785 0.11785 0.38214 0 0.5-0.11785 0.11785-0.33333 0-0.5 0 0.0979 0.64473 0.19578 1.2895 0.29367 1.9342z"/>
  <path d="m191.5 219.98v11 2 0.5c0 0.16666-0.0745 0.35092 0 0.5 1.0404 2.0809-0.0345-0.53452 1 0.5 0.0161 0.0161 0 1.3787 0 1.5v3.5c0 0.32855-0.094 1.2179 0 1.5 0.11785 0.35355 0.38215 0.64644 0.5 1 0.15702 0.47105-0.16209 2.6758 0 3 0.21082 0.42163 0.85093 0.55278 1 1 0.10541 0.31622-0.0808 0.67662 0 1 0.18078 0.7231 0.81922 1.2769 1 2 0.0808 0.32338 0 0.66666 0 1v1 3.5 1.5c0 0.16666-0.11785 0.38214 0 0.5 0.26352 0.26352 0.73648 0.23647 1 0.5 0.11785 0.11785 0 0.33333 0 0.5v4c0 0.23574-0.0227 2.4773 0 2.5 0.11785 0.11785 0.38215-0.11786 0.5 0 0.25 0.25-0.25 1.25 0 1.5 0.11785 0.11785 0.38215-0.11786 0.5 0 0.11785 0.11785-0.11785 0.38214 0 0.5 0.11785 0.11785 0.38215-0.11786 0.5 0 0.25 0.25-0.25 1.25 0 1.5 0.11785 0.11785 0.38215-0.11786 0.5 0 0.11785 0.11785 0 0.33333 0 0.5v1.5c0 0.12126-0.0161 1.4839 0 1.5 0.11785 0.11785 0.38215-0.11786 0.5 0 0.11785 0.11785 0 0.33333 0 0.5v0.5c0 0.32846-0.0588 1.8824 0 2 0.0745 0.14907 0.38215-0.11786 0.5 0 0.11785 0.11785-0.11785 0.38214 0 0.5 0.11785 0.11785 0.5 0.16666 0.5 0 0-0.23571-0.7357-0.5-0.5-0.5 0.47643 0 1.7302 0.76984 2 0.5 0.26352-0.26353 0.29328-0.68992 0.5-1 0.13074-0.19612 0.39459-0.28919 0.5-0.5 0.2749-0.54981-0.48152-1.0092 0.5-1.5 0.13325-0.0666 2.7738 0 3 0 0.16667 0 0.38215 0.11785 0.5 0 0.11785-0.11786 0-0.33334 0-0.5 0-0.44686-0.0797-2.3407 0-2.5 0.10541-0.21082 0.39459-0.28919 0.5-0.5 0.0761-0.15217 0-1.2748 0-1.5v-4-8-3.5c0-0.33334 0.10541-0.68378 0-1-0.0745-0.22361-0.39459-0.28919-0.5-0.5-0.2-0.4 0.2-1.1 0-1.5-0.10541-0.21082-0.39459-0.28919-0.5-0.5-0.16241-0.32482 0.15858-2.1828 0-2.5-0.10541-0.21082-0.39459-0.28919-0.5-0.5-0.14907-0.29815 0.29814-0.85093 0-1-0.29814-0.14908-0.70186 0.14907-1 0-0.14907-0.0745 0.0745-0.35093 0-0.5-0.10541-0.21082-0.42546-0.2764-0.5-0.5-0.12061-0.36183 0.16482-1.8352 0-2-0.11785-0.11786-0.38215 0.11785-0.5 0-0.11785-0.11786 0.11785-0.38215 0-0.5-0.11785-0.11786-0.38215 0.11785-0.5 0-0.2357-0.23571 0.2357-0.7643 0-1-0.11785-0.11786-0.38215 0.11785-0.5 0-0.11785-0.11786 0-0.33334 0-0.5v-1.5c0-1.1726 0.11785 0.2357-0.5-1-0.0761-0.15217 0-1.2748 0-1.5v-3-0.5c0-0.16667 0.11785-0.38215 0-0.5-0.11785-0.11786-0.38215 0.11785-0.5 0-0.25-0.25 0.25-1.25 0-1.5-0.11785-0.11786-0.38215 0.11785-0.5 0-0.11785-0.11786 0-0.33334 0-0.5 0-0.33334 0.2357-0.7643 0-1-0.2357-0.23571-0.70186 0.14907-1 0-0.14907-0.0745 0.11785-0.38215 0-0.5-0.2357-0.23571-0.7643 0.2357-1 0-0.11785-0.11786 0-0.33334 0-0.5v-0.5-0.5 1-6.5-0.5c0-0.16667 0.11785-0.38215 0-0.5-0.25-0.25-1.25 0.25-1.5 0-0.11785-0.11786 0.11785-0.38215 0-0.5-0.11785-0.11786-0.38215 0.11785-0.5 0-0.11785-0.11786 0.11785-0.38215 0-0.5-0.0161-0.0161-1.3787 0-1.5 0-0.16667 0-0.38215-0.11786-0.5 0-0.11785 0.11785 0.11785 0.38214 0 0.5-0.11785 0.11785-0.38215-0.11786-0.5 0-0.11785 0.11785 0.11785 0.38214 0 0.5-0.11785 0.11785-0.34525-0.0619-0.5 0-0.69205 0.27681-1.3333 0.66666-2 1z"/>
  <path d="m216.5 185.48c0.66667 2 1.3333 4 2 6 0.5 1 1.0986 1.9565 1.5 3 0.43557 1.1325 0.45737 2.4147 1 3.5 0.64118 1.2824 1.9352 2.1822 2.5 3.5 0.46424 1.0832 0.28918 2.3405 0.5 3.5 0.12293 0.6761 0.28269 1.3481 0.5 2 0.68516 2.0555 1.8148 3.9445 2.5 6 0.26874 0.80622 0.20957 1.7013 0.5 2.5 0.38208 1.0507 1.0848 1.9619 1.5 3 0.6408 1.602 0.27274 2.0455 1 3.5 0.43461 0.86922 1.0654 1.6308 1.5 2.5 0.40139 0.80277 0.59861 1.6972 1 2.5 0.43461 0.86922 1.0103 1.6606 1.5 2.5 0.67706 1.1607 1.3087 2.3478 2 3.5 1.77 2.95 0.45255-4e-3 2.5 4.5 0.94035 2.0688 0.87804 2.6301 2 4.5 0.61835 1.0306 1.4163 1.9494 2 3 0.71176 1.2812 0.48851 2.636 1 4 0.211 0.56266 0.69083 0.98471 1 1.5 0.19174 0.31956 0.33333 0.66666 0.5 1 0.16667 0.33333 0.38215 0.64644 0.5 1 0.0527 0.15811-0.0745 0.35092 0 0.5 0.10541 0.21081 0.42546 0.27639 0.5 0.5 0.10541 0.31622 0 0.66666 0 1 0 0.16666-0.0745 0.35092 0 0.5 0.10541 0.21081 0.39459 0.28918 0.5 0.5 0.0761 0.15216 0 1.2748 0 1.5v7 1.5c0 0.16666 0.16667 0.5 0 0.5s0-0.66667 0-0.5v4 1.5c0 0.16666 0.16667 0.5 0 0.5s0-0.66667 0-0.5v1.5c0 0.16666-0.14907 0.42546 0 0.5 0.1463 0.0731 2.5908 0 3 0h6.5 2c0.16667 0 0.5-0.16667 0.5 0 0 0.16666-0.66667 0-0.5 0 0.33333 0 0.70186 0.14907 1 0 0.14907-0.0745 0-0.33334 0-0.5v-0.5-3.5c0-0.40252 0.10461-1.6862 0-2-0.11785-0.35356-0.40961-0.63845-0.5-1-0.16169-0.64677 0.21082-1.3676 0-2-0.0745-0.22361-0.42546-0.2764-0.5-0.5-0.10541-0.31623 0.10541-0.68378 0-1-0.0745-0.22361-0.44283-0.27134-0.5-0.5-0.19608-0.78432 0.19608-1.7157 0-2.5-0.0904-0.36155-0.38215-0.64645-0.5-1-0.0527-0.15812 0.0745-0.35093 0-0.5-0.10541-0.21082-0.44283-0.27134-0.5-0.5-0.0915-0.36597 0.0591-2.9409 0-3-0.26352-0.26353-0.73648-0.23648-1-0.5-0.10222-0.10222 0.0991-1.3018 0-1.5-0.7357-1.4714-0.5 0.77614-0.5-1.5 0-0.40252 0.10461-1.6862 0-2-0.11785-0.35356-0.38215-0.64645-0.5-1-0.21731-0.65192-0.28269-1.3481-0.5-2-0.11785-0.35356-0.38215-0.64645-0.5-1-0.21731-0.65192-0.31122-1.3393-0.5-2-0.14479-0.50677-0.37217-0.98869-0.5-1.5-0.20612-0.82447-0.26653-1.6829-0.5-2.5-0.37239-1.3034-0.66456-0.88608-1.5-2-0.65533-0.87378-0.49581-1.4916-1-2.5-0.10541-0.21082-0.39459-0.28919-0.5-0.5-0.1475-0.29501 0.11464-1.1561 0-1.5-0.11785-0.35356-0.38215-0.64645-0.5-1-0.21731-0.65192-0.28269-1.3481-0.5-2-0.2357-0.70711-0.81922-1.2769-1-2-0.0808-0.32338 0.14907-0.70186 0-1-0.0745-0.14908-0.42546 0.14907-0.5 0-0.10625-0.21251 0-2.081 0-2.5 0-0.16667 0.11785-0.38215 0-0.5-0.26352-0.26353-0.73648-0.23648-1-0.5-0.26352-0.26353-0.33333-0.66667-0.5-1-0.16667-0.33334-0.36159-0.65398-0.5-1-0.19574-0.48935-0.30426-1.0106-0.5-1.5-0.27682-0.69205-0.7643-1.2929-1-2-0.0649-0.19457 0.0776-1.4224 0-1.5-0.11785-0.11786-0.38215 0.11785-0.5 0-0.11785-0.11786 0.0404-0.33831 0-0.5-0.30893-1.2357-0.48274-1.4655-1-2.5-0.16667-0.33334-0.27639-0.70186-0.5-1-0.42426-0.56569-1.1078-0.91166-1.5-1.5-0.57454-0.86181-0.5-0.7558-0.5-1.5 0-0.16667 0.0745-0.35093 0-0.5-0.10541-0.21082-0.39459-0.28919-0.5-0.5-0.0745-0.14908 0.0745-0.35093 0-0.5-0.51647-1.0329-0.8131 0.0303-1.5-1-0.57454-0.86181-0.5-0.7558-0.5-1.5v-0.5c0-0.16667 0.14907-0.42547 0-0.5-0.29814-0.14908-0.68377 0.10541-1 0-0.22361-0.0745-0.28918-0.39459-0.5-0.5-0.14907-0.0745-0.38215 0.11785-0.5 0-0.11785-0.11786 0.0745-0.35093 0-0.5-0.10541-0.21082-0.39459-0.28919-0.5-0.5-0.0745-0.14908 0.11785-0.38215 0-0.5-0.11785-0.11786-0.42546 0.14907-0.5 0-0.16174-0.32348 0.17961-1.8204 0-2-0.11785-0.11786-0.38215 0.11785-0.5 0-0.11785-0.11786 0.0527-0.34189 0-0.5-0.11785-0.35356-0.38215-0.64645-0.5-1-0.0527-0.15812 0.0745-0.35093 0-0.5-0.10541-0.21082-0.39459-0.28919-0.5-0.5-0.14907-0.29815 0.2357-0.7643 0-1-0.11785-0.11786-0.38215 0.11785-0.5 0-0.11785-0.11786 0.11785-0.38215 0-0.5-0.26352-0.26353-0.73648-0.23648-1-0.5-0.2357-0.23571 0.14907-0.70186 0-1-0.10541-0.21082-0.39459-0.28919-0.5-0.5-0.14907-0.29815 0.2357-0.7643 0-1-0.2357-0.23571-1 0.33333-1 0 0-0.70834 2.3333 1.4167-0.5 0-0.14907-0.0745 0.11785-0.38215 0-0.5-0.11785-0.11786-0.38215 0.11785-0.5 0-0.2357-0.23571 0.2357-0.7643 0-1-0.11785-0.11786-0.38215 0.11785-0.5 0-0.11785-0.11786 0-0.33334 0-0.5 0-0.59547 0.27806-1.7406-0.5-2-0.31623-0.10541-0.72265 0.1849-1 0-0.31009-0.20673-0.23648-0.73648-0.5-1-0.11785-0.11786-0.38215 0.11785-0.5 0-0.11785-0.11786 0.11785-0.38215 0-0.5-0.11785-0.11786-0.33333 0-0.5 0-0.23575 0-2.4773 0.0227-2.5 0-0.33333-0.33334 0.33333-0.66667 0-1-0.10222-0.10222-1.3018 0.0991-1.5 0-2.0809-1.0404 0.53452 0.0345-0.5-1-0.11785-0.11786-0.33333 0-0.5 0-1.6872 0-0.67662-0.0808-3 0.5z"/>
  <path d="m273 208.98c0 0.83333 0.092 1.6718 0 2.5-0.0759 0.68298-0.40282 1.3197-0.5 2-0.0707 0.49497 0 1 0 1.5v4 12 10.5 3.5c0 0.33333-0.0654 0.67314 0 1 0.33166 1.6583 0.46667 1.1667 1 2.5 0.19574 0.48935 0.35521 0.99323 0.5 1.5 0.18878 0.66074 0.33333 1.3333 0.5 2 0.16667 0.66666 0.38703 1.3222 0.5 2 0.1096 0.65759 0 1.3333 0 2v3.5c0 0.5-0.15811 1.0256 0 1.5 0.0745 0.2236 0.42546 0.27639 0.5 0.5 0.10541 0.31622 0 0.66666 0 1 0 0.16666-0.0745 0.35092 0 0.5 0.10541 0.21081 0.39459 0.28918 0.5 0.5 0.0761 0.15216 0 1.2748 0 1.5v4 0.5c0 0.16666-0.11785 0.38214 0 0.5 0.11785 0.11785 0.38215-0.11786 0.5 0 0.2357 0.2357-0.29814 0.85092 0 1 0.29814 0.14907 0.70186-0.14908 1 0 0.14907 0.0745 0.16667 0.5 0 0.5s-0.16667-0.5 0-0.5c0.2357 0 0.28918 0.39459 0.5 0.5 0.15217 0.0761 1.2748 0 1.5 0h4 4.5 1c0.16667 0 0.5-0.16667 0.5 0 0 0.16666-0.5 0.16666-0.5 0 0-0.23571 0.39459-0.28919 0.5-0.5 0.0745-0.14908 0-0.33334 0-0.5v-4-1.5c0-0.5 0.12127-1.0149 0-1.5-0.21768-0.87073-0.68486-1.6596-1-2.5-0.18506-0.49349-0.30426-1.0106-0.5-1.5-0.0276-0.0691-0.99528-1.9764-1-2-0.0981-0.49029 0-1 0-1.5v-2.5c0-0.33334 0.0808-0.67662 0-1-0.1803-0.72121-1.0158-2.8544-1.5-3.5-0.28284-0.37713-0.73851-0.60777-1-1-0.0924-0.13868 0-0.33334 0-0.5v-1c0-0.96241 0.11682-2.0655 0-3-0.10541-0.84328-0.31564-1.6704-0.5-2.5-0.29814-1.3416-0.66667-2.6667-1-4-0.16667-0.66667-0.28269-1.3481-0.5-2-0.11785-0.35356-0.40961-0.63845-0.5-1-0.0953-0.38101 0-2.9827 0-3.5 0-0.16667 0.0527-0.34189 0-0.5-0.2357-0.70711-0.66667-1.3333-1-2-0.16667-0.33334-0.42691-0.63456-0.5-1-0.0981-0.49029 0-1 0-1.5v-2-7.5c0-0.23575 0.0227-2.4773 0-2.5-0.26352-0.26353-0.77639-0.20186-1-0.5-0.58579-0.78105-0.28697-1.787-1-2.5-0.11785-0.11786-0.38215 0.11785-0.5 0-0.25-0.25 0.25-1.25 0-1.5-0.11785-0.11786-0.5 0.16666-0.5 0 0-0.16667 0.66667 0 0.5 0h-2.5c-0.16667 0-0.38215 0.11785-0.5 0-0.11785-0.11786 0.16667-0.5 0-0.5-0.68718 0-1.3333 0.33333-2 0.5z"/>
 </g>
 <g fill="none" stroke="#000" stroke-width="1px">
  <path d="m224.5 111.98h-2.5c-0.16667 0-0.35093-0.0745-0.5 0-0.21082 0.10541-0.28918 0.39459-0.5 0.5-0.14907 0.0745-0.38215-0.11786-0.5 0-0.11785 0.11785 0.11785 0.38214 0 0.5-0.11785 0.11785-0.38215-0.11786-0.5 0-0.11785 0.11785 0 0.33333 0 0.5v3.5c0 1.1726 0.11785-0.23571-0.5 1-0.0991 0.19824 0.10222 1.3978 0 1.5-0.11785 0.11785-0.38215-0.11786-0.5 0-0.12032 0.12031 0.12032 1.8797 0 2-0.11785 0.11785-0.38215-0.11786-0.5 0-0.33218 0.33218 0.33218 0.66782 0 1-0.11785 0.11785-0.38215-0.11786-0.5 0-0.0201 0.0201 0 1.8164 0 2v14 4.5 0.5c0 0.16666-0.11785 0.38214 0 0.5 0.11785 0.11785 0.35093-0.0745 0.5 0 0.21082 0.10541 0.33333 0.33333 0.5 0.5 0.29407 0.29407 1.7685 1.8842 2 2 0.26957 0.13478 2.3129-0.12476 2.5 0 0.39223 0.26148 0.66667 0.66666 1 1 0.16667 0.16666 0.28918 0.39459 0.5 0.5 0.18082 0.0904 2.1522 0 2.5 0h6.5 7c0.18362 0 1.9799 0.0201 2 0 0.26352-0.26353 0.23648-0.73648 0.5-1 0.11785-0.11786 0.34189 0.0527 0.5 0 0.35355-0.11786 0.64645-0.38215 1-0.5 0.15811-0.0527 0.35093 0.0745 0.5 0 0.98152-0.49076 0.2251-0.9502 0.5-1.5 0.4112-0.82241 1.5888-0.6776 2-1.5 0.2357-0.47141 0.37217-0.98869 0.5-1.5 0.10651-0.42604 0-1.0592 0-1.5v-3.5c0-0.80998 0.23471-3.0102-0.5-3.5-0.27735-0.1849-0.66667 0-1 0-0.16667 0-0.38215 0.11785-0.5 0-0.11785-0.11786 0.11785-0.38215 0-0.5-0.11785-0.11786-0.35093 0.0745-0.5 0-0.21082-0.10541-0.28918-0.39459-0.5-0.5-0.14874-0.0744-2.7897 0-3 0h-6.5c-0.12126 0-1.4839-0.0161-1.5 0-0.11785 0.11785 0.0925 0.36132 0 0.5-0.26149 0.39223-0.73851 0.60776-1 1-0.0925 0.13867 0 0.33333 0 0.5v0.5c0 0.16666-0.16667 0.5 0 0.5 0.2357 0 0.33333-0.33334 0.5-0.5 0.16667-0.16667 0.36926-0.30389 0.5-0.5 0.20672-0.31009 0.29328-0.68992 0.5-1 0.13074-0.19612 0.33333-0.33334 0.5-0.5 0.16667-0.16667 0.28918-0.39459 0.5-0.5 0.14907-0.0745 0.35093 0.0745 0.5 0 1.1055-0.55277 0.15516-0.31033 0.5-1 0.10541-0.21082 0.33333-0.33334 0.5-0.5 0.33333-0.33334 0.75746-0.59578 1-1 0.27116-0.45194 0.2643-1.0286 0.5-1.5 0.0894-0.17883 1.7921-1.8614 2-2 0.31009-0.20673 0.65398-0.36159 1-0.5 0.48935-0.19574 1.0784-0.18378 1.5-0.5 0.29814-0.22361 0.29328-0.68992 0.5-1 0.13074-0.19612 0.33333-0.33334 0.5-0.5 0.16667-0.16667 0.30388-0.36926 0.5-0.5 1.9433-1.2956 0.0567 0.29554 2-1 0.19612-0.13075 0.33333-0.33334 0.5-0.5 0.33333-0.16667 0.68991-0.29328 1-0.5 0.99053 0.0499 0.23648-0.73648 0.5-1 0.11785-0.11786 0.33333 0 0.5 0h0.5 0.5-1c0.83037 0 1.5732-0.35356 2 0.5 0.0745 0.14907-0.0745 0.35092 0 0.5 0.10541 0.21081 0.39459 0.28918 0.5 0.5 0.0745 0.14907-0.11785 0.38214 0 0.5 0.11785 0.11785 0.35093-0.0745 0.5 0 2.0809 1.0404-0.53452-0.0345 0.5 1 0.11785 0.11785 0.38215-0.11786 0.5 0 0.93296 0.93296 0.23238 1.4648 0.5 2 0.46025 0.9205 1.0398 0.0795 1.5 1 0.14907 0.29814-0.14907 0.70185 0 1 0.10541 0.21081 0.42546 0.27639 0.5 0.5 0.10541 0.31622-0.1849 0.72265 0 1 0.20672 0.31008 0.73648 0.23647 1 0.5 0.2357 0.2357-0.14907 0.70185 0 1 0.10541 0.21081 0.39459 0.28918 0.5 0.5 0.0991 0.19824-0.10222 1.3978 0 1.5 0.11785 0.11785 0.42546-0.14908 0.5 0 0.22361 0.44721-0.22361 1.0528 0 1.5 0.10541 0.21081 0.39459 0.28918 0.5 0.5 0.0991 0.19824-0.10222 1.3978 0 1.5 0.11785 0.11785 0.38215-0.11786 0.5 0 0.11785 0.11785 0 0.33333 0 0.5 0 0.33333-0.14907 0.70185 0 1 0.0745 0.14907 0.38215-0.11786 0.5 0 0.0161 0.0161 0 1.3787 0 1.5"/>
  <path d="m264 91.984c-0.58615 0.14654-2.0775 0.15493-2.5 1-0.0745 0.14907 0 0.33333 0 0.5v0.5c0 0.16667 0.11785 0.38215 0 0.5s-0.38215-0.11785-0.5 0 0.0527 0.34189 0 0.5c-0.11785 0.35355-0.38215 0.64645-0.5 1-0.10541 0.31623 0.2357 0.7643 0 1-0.26352 0.26352-0.73648 0.23648-1 0.5-0.2357 0.2357 0.14907 0.70186 0 1-0.10541 0.21082-0.39459 0.28918-0.5 0.5-0.0745 0.14907 0.0745 0.35093 0 0.5-0.10541 0.21082-0.42546 0.27639-0.5 0.5-0.0948 0.28443 0 2.0291 0 2.5v5c0 0.32855-0.094 1.2179 0 1.5 0.11785 0.35355 0.38215 0.64644 0.5 1 0.0527 0.15811-0.14907 0.42546 0 0.5 0.29814 0.14907 0.70186-0.14908 1 0 0.29814 0.14907-0.14907 0.70185 0 1 0.10541 0.21081 0.39459 0.28918 0.5 0.5 0.15498 0.30995-0.15344 2.1931 0 2.5 0.14907 0.29814 0.7643-0.23571 1 0 0.11785 0.11785-0.0745 0.35092 0 0.5 0.3 0.6 1.2 0.9 1.5 1.5 0.34484 0.68967-0.60553 0.44723 0.5 1 0.14907 0.0745 0.38215-0.11786 0.5 0 0.26352 0.26352 0.23648 0.73647 0.5 1 0.2357 0.2357 0.70186-0.14908 1 0 0.21082 0.10541 0.28918 0.39459 0.5 0.5 0.15217 0.0761 1.2748 0 1.5 0h3 3.5c0.16667 0 0.38215 0.11785 0.5 0 0.26352-0.26353 0.23648-0.73648 0.5-1 0.11785-0.11786 0.34189 0.0527 0.5 0 0.35355-0.11786 0.68991-0.29328 1-0.5 0.99053 0.0499 0.23648-0.73648 0.5-1 0.11785-0.11786 0.38215 0.11785 0.5 0 0.11785-0.11786-0.11785-0.38215 0-0.5 0.11785-0.11786 0.33333 0 0.5 0 0-0.16667-0.0745-0.35093 0-0.5 0.10541-0.21082 0.28918-0.39459 0.5-0.5 0.14907-0.0745 0.42546 0.14907 0.5 0 0.14907-0.29815 0-0.66667 0-1 0-0.16667-0.11785-0.38215 0-0.5 0.11785-0.11786 0.35093 0.0745 0.5 0 2.0809-1.0404-0.53452 0.0345 0.5-1 0.11785-0.11786 0.38215 0.11785 0.5 0 0.10222-0.10222-0.0991-1.3018 0-1.5 0.10541-0.21082 0.42546-0.2764 0.5-0.5 0.15811-0.47435 0-1 0-1.5v-3-7.5c0-0.31323 0.0269-2.9731 0-3-0.2357-0.2357-0.70186 0.14907-1 0-0.14907-0.07454 0-0.33333 0-0.5 0-1.1726 0.11785 0.2357-0.5-1-0.0745-0.14907 0.11785-0.38215 0-0.5s-0.35093 0.07454-0.5 0c-0.42164-0.21082-0.57836-0.78918-1-1-0.29814-0.14907-0.68377 0.10541-1 0-0.35355-0.11785-0.64645-0.38215-1-0.5-0.3147-0.1049-2.0493 0-2.5 0h-6"/>
  <path d="m292 99.484c-2.481-1.5271-2.7652-2.5303-4-5-0.16667-0.33333-0.23648-0.73648-0.5-1s-0.68991-0.29328-1-0.5c-0.39223-0.26149-0.57836-0.78918-1-1-0.14907-0.07454-0.38215 0.11785-0.5 0s0-0.33333 0-0.5v-1.5-4c0-0.26146 0.0657-1.8685 0-2-0.10541-0.21082-0.39459-0.28918-0.5-0.5-0.0745-0.14907 0-0.33333 0-0.5v-0.5-3c0-1.3333 0.16667 0.16667-0.5-0.5-0.25-0.25 0.25-1.25 0-1.5-0.11785-0.11785-0.38215 0.11785-0.5 0s-0.11785-0.38215 0-0.5 0.38215-0.11785 0.5 0-0.0745 0.35093 0 0.5c0.10541 0.21082 0.36926 0.30388 0.5 0.5 0.20672 0.31009 0.23648 0.73648 0.5 1 0.11785 0.11785 0.35093-0.07454 0.5 0 0.42164 0.21082 0.57836 0.78918 1 1 0.14907 0.07454 0.35093-0.07454 0.5 0 0.21082 0.10541 0.28918 0.39459 0.5 0.5 0.4 0.2 1.1-0.2 1.5 0 1.1055 0.55276 0.15516 0.31032 0.5 1 0.10735 0.21471 1.9875 1.9917 2 2 0.23025 0.1535 1.8555-0.14448 2 0 0 1.3333-0.16667-0.16667 0.5 0.5 0.2357 0.2357-0.29814 0.85093 0 1 2.2761 0 0.0286-0.2357 1.5 0.5 0.14907 0.07454 0.38215-0.11785 0.5 0s-0.11785 0.38215 0 0.5 0.33333 0 0.5 0c0 0.16667-0.11785 0.38215 0 0.5 0.12032 0.12032 1.8797-0.12032 2 0 0.11785 0.11785-0.11785 0.38215 0 0.5s0.36133-0.09245 0.5 0c0.39223 0.26149 0.60777 0.73851 1 1 0.27735 0.1849 0.7643-0.2357 1 0 0.33218 0.33218-0.33218 0.66782 0 1 0.11785 0.11785 0.33333 0 0.5 0 0 0.16667-0.0745 0.35093 0 0.5 0.30893 0.61785 0.48274 0.5 1 0.5 0.16667 0 0.5-0.16667 0.5 0s-0.33333 0-0.5 0"/>
  <path d="m293.5 83.484c-0.16667 0.16667-0.33333 0.66667-0.5 0.5s0.68405-0.64724 0.5-0.5c-1.0165 0.81317-1.9408 1.7434-3 2.5-0.13562 0.09687-0.42546-0.14907-0.5 0-0.14907 0.29814 0.14907 0.70186 0 1-0.0745 0.14907-0.38215-0.11785-0.5 0s0 0.33333 0 0.5c-0.16667 0-0.38215-0.11785-0.5 0s0.0745 0.35093 0 0.5c-0.10541 0.21082-0.39459 0.28918-0.5 0.5-0.14907 0.29814 0.2357 0.7643 0 1-0.11785 0.11785-0.38215-0.11785-0.5 0s0.11785 0.38215 0 0.5-0.38215-0.11785-0.5 0 0.11785 0.38215 0 0.5-0.42546-0.14907-0.5 0c-0.14907 0.29814 0.2357 0.7643 0 1s-0.70186-0.14907-1 0c-0.20755 0.10377 0.17453 1.3255 0 1.5-0.66667 0.66667-0.5-0.83333-0.5 0.5"/>
  <path d="m292.5 66.984c0.0367 1.3501 1.8347 2.0021 2.5 3 0.20672 0.31009 0.23648 0.73648 0.5 1s0.73648 0.23648 1 0.5c1.0345 1.0345-1.5809-0.04044 0.5 1 0.14907 0.07454 0.35093-0.07454 0.5 0 0.21082 0.10541 0.28918 0.39459 0.5 0.5 0.14907 0.07454 0.38215-0.11785 0.5 0s-0.11785 0.38215 0 0.5 0.35093-0.07454 0.5 0c0.21082 0.10541 0.30388 0.36926 0.5 0.5 0.31009 0.20672 0.73648 0.23648 1 0.5s0.38215 0.64645 0.5 1c0.0527 0.15811-0.11785 0.38215 0 0.5 1.0345 1.0345-0.0404-1.5809 1 0.5 0.34484 0.68968-0.60553 0.44724 0.5 1 0.29814 0.14907 0.7643-0.2357 1 0 0.11785 0.11785-0.11785 0.38215 0 0.5s0.33333 0 0.5 0h1c0.16667 0 0.35093-0.07454 0.5 0 0.21082 0.10541 0.33333 0.33333 0.5 0.5s0.39459 0.28918 0.5 0.5c0.0745 0.14907 0 0.33333 0 0.5 0 0.33333-0.10541 0.68377 0 1 0.0745 0.22361 0.39459 0.28918 0.5 0.5 0.0745 0.14907-0.11785 0.38215 0 0.5s0.38215-0.11785 0.5 0-0.0745 0.35093 0 0.5c0.10541 0.21082 0.39459 0.28918 0.5 0.5 0.0745 0.14907-0.0745 0.35093 0 0.5 0.10541 0.21082 0.39459 0.28918 0.5 0.5 0.0745 0.14907-0.14907 0.42546 0 0.5 0.29814 0.14907 0.7643-0.2357 1 0s-0.14907 0.70186 0 1c0.0745 0.14907 0.38215-0.11785 0.5 0s0 0.66667 0 0.5v-4.5c0-0.11882-0.056-1.8879 0-2 1.0404-2.0809-0.0345 0.53452 1-0.5 0.11785-0.11785-0.11785-0.38215 0-0.5 0.2357-0.2357 0.70186 0.14907 1 0 0.21082-0.10541 0.28918-0.39459 0.5-0.5 0.29814-0.14907 0.7643 0.2357 1 0 0.11785-0.11785-0.11785-0.38215 0-0.5s0.38215 0.11785 0.5 0-0.11785-0.38215 0-0.5 0.42546 0.14907 0.5 0c0.0913-0.18258-0.0973-2.4027 0-2.5 0.11785-0.11785 0.38215 0.11785 0.5 0 0.2357-0.2357-0.2357-0.7643 0-1 0.11785-0.11785 0.38215 0.11785 0.5 0s-0.11785-0.38215 0-0.5 0.38215 0.11785 0.5 0c0.33218-0.33218-0.33218-0.66782 0-1 0.0441-0.04412 1.9314 0 0.5 0"/>
  <path d="m306.5 50.984c0.5 0.66667 1 1.3333 1.5 2 0 0.16667-0.0745 0.35093 0 0.5 0.10541 0.21082 0.42546 0.27639 0.5 0.5 0 2.2761-0.2357 0.02859 0.5 1.5 0.14907 0.29814-0.2357 0.7643 0 1 0.11785 0.11785 0.38215-0.11785 0.5 0s-0.14907 0.42546 0 0.5c0.29814 0.14907 0.68377-0.10541 1 0 0.22361 0.07454 0.28918 0.39459 0.5 0.5 0.29814 0.14907 0.7643-0.2357 1 0 0.11785 0.11785-0.11785 0.38215 0 0.5s0.38215-0.11785 0.5 0-0.11785 0.38215 0 0.5c0.2357 0.2357 0.7643-0.2357 1 0 1.1606 2.3213-0.33024 0.08488 1.5 1 0.14907 0.07454-0.11785 0.38215 0 0.5 0.10222 0.10222 1.3018-0.09912 1.5 0 0.21082 0.10541 0.28918 0.39459 0.5 0.5 0.29814 0.14907 0.7643-0.2357 1 0 0.11785 0.11785-0.14907 0.42546 0 0.5 0.29814 0.14907 0.70186-0.14907 1 0 0.14907 0.07454-0.0745 0.35093 0 0.5 0.10541 0.21082 0.28918 0.39459 0.5 0.5 0.29814 0.14907 0.7643-0.2357 1 0 0.11785 0.11785-0.11785 0.38215 0 0.5 0.2357 0.2357 0.7643-0.2357 1 0 0.11785 0.11785-0.11785 0.38215 0 0.5 0.83333 0.83333 0.5-1.8333 0.5 1"/>
  <path d="m327.5 66.484c-2.357-0.14298 0.58926 1.9107 0 2.5-0.11785 0.11785-0.38215-0.11785-0.5 0-0.0618 0.06176 0 1.6865 0 2"/>
  <path d="m313 42.484c0.66667 0.66667 1.3333 1.3333 2 2 0 0.16667-0.0745 0.35093 0 0.5 0.10541 0.21082 0.42546 0.27639 0.5 0.5 0.10541 0.31623-0.14907 0.70186 0 1 0.0745 0.14907 0.34189-0.05271 0.5 0 0.35355 0.11785 0.64645 0.38215 1 0.5 0.15811 0.0527 0.38215-0.11785 0.5 0 1.0345 1.0345-1.5809-0.04044 0.5 1 0.14907 0.07454 0.38215-0.11785 0.5 0 0.2357 0.2357-0.2357 0.7643 0 1 0.11785 0.11785 0.38215-0.11785 0.5 0s-0.11785 0.38215 0 0.5 0.35093-0.07454 0.5 0c0.21082 0.10541 0.33333 0.33333 0.5 0.5s0.42546 0.27639 0.5 0.5c0.10541 0.31623-0.2357 0.7643 0 1 0.25 0.25 1.25-0.25 1.5 0 0.2357 0.2357-0.2357 0.7643 0 1s0.70186-0.14907 1 0c0.21082 0.10541 0.28918 0.39459 0.5 0.5 0.14907 0.07454 0.38215-0.11785 0.5 0 1.0345 1.0345-1.5809-0.04044 0.5 1 0.14907 0.07454 0.38215-0.11785 0.5 0s-0.11785 0.38215 0 0.5 0.38215-0.11785 0.5 0-0.11785 0.38215 0 0.5c0.2357 0.2357 1-0.33333 1 0 0 0.16667-0.33333 0-0.5 0"/>
  <path d="m33.5 185.98c0.66667-0.16667 1.3262-0.36524 2-0.5 0.56324-0.11265 1.3946 0 2 0h4.5 12 5 2 0.5-15c-0.18362 0-1.9799-0.0201-2 0-0.11785 0.11785 0.11785 0.38214 0 0.5-0.11785 0.11785-0.35093-0.0745-0.5 0-0.21082 0.10541-0.27639 0.42546-0.5 0.5-0.46212 0.15404-2.0336-0.15547-2.5 0-0.35355 0.11785-0.64645 0.38214-1 0.5-0.29814 0.0994-2.5156 0-3 0-0.28253 0-1.2757 0.0897-1.5 0-0.69205-0.27682-1.638-0.34845-2-1-0.7114-1.2805-0.5-6.6035-0.5-8.5v-3c0-0.33334-0.14907-0.70186 0-1 0.07454-0.14908 0.33333 0 0.5 0h0.5 3.5c0.22518 0 1.3478-0.0761 1.5 0 0.42164 0.21081 0.57836 0.78918 1 1 0.14907 0.0745 0.38215-0.11786 0.5 0 0.2357 0.2357-0.2357 0.76429 0 1 0.11785 0.11785 0.38215-0.11786 0.5 0 0.11785 0.11785-0.07454 0.35092 0 0.5 0.10541 0.21081 0.39459 0.28918 0.5 0.5 0.07454 0.14907-0.11785 0.38214 0 0.5 0.11785 0.11785 0.34189-0.0527 0.5 0 0.35355 0.11785 0.73648 0.23647 1 0.5 0.12032 0.12031-0.12032 1.8797 0 2 0.11785 0.11785 0.38215-0.11786 0.5 0 0.2357 0.2357-0.14907 0.70185 0 1 0.10541 0.21081 0.39459 0.28918 0.5 0.5 0.23103 0.46205-0.3498 1.6502 0 2 0.2357 0.2357 0.66667 0 1 0h0.5c0.16667 0 0.35093 0.0745 0.5 0 1.2357-0.61786-0.17259-0.5 1-0.5 1.3333 0-0.16667 0.16666 0.5-0.5 0.11785-0.11786 0.38215 0.11785 0.5 0 0.30629-0.30629 0.42566-1.3086 1-1.5 0.31623-0.10541 0.68377 0.10541 1 0 0.3794-0.12647 1.5405-1.7702 2-2 0.15217-0.0761 1.2748 0 1.5 0h3"/>
  <path d="m37 156.48v5c0 0.22517-0.07608 1.3478 0 1.5 0.50562 1.0112 1.1603 0.16033 1.5 0.5 0.11785 0.11785-0.05271 0.34188 0 0.5 0.11785 0.35355 0.23648 0.73647 0.5 1 0.2357 0.2357 0.7643-0.23571 1 0 0.11785 0.11785 0 0.33333 0 0.5 0.33333 0 0.68377-0.10541 1 0 0.22361 0.0745 0.28918 0.39459 0.5 0.5 0.14907 0.0745 0.38215-0.11786 0.5 0 0.11785 0.11785-0.11785 0.38214 0 0.5 0.25 0.25 1.25-0.25 1.5 0 0.11785 0.11785-0.11785 0.38214 0 0.5 0.11785 0.11785 0.33333 0 0.5 0h4 3.5c0.16667 0 0.38215 0.11785 0.5 0 0.01608-0.0161 0-1.3787 0-1.5v-10c0-0.18362 0.02012-1.9799 0-2-0.25-0.25-1.25 0.25-1.5 0-0.11785-0.11786 0.11785-0.38215 0-0.5-0.11785-0.11786-0.36132 0.0924-0.5 0-0.33333-0.33334-0.66667-0.66667-1-1-0.16667 0-0.35093 0.0745-0.5 0-0.42164-0.21082-0.57836-0.78919-1-1-0.15217-0.0761-1.2748 0-1.5 0h-3.5-0.5c-0.16667 0-0.38215-0.11786-0.5 0-0.11785 0.11785 0.14907 0.42546 0 0.5-0.29814 0.14907-0.7643-0.23571-1 0-0.70711 0.2071 0.35355 1.1464 0 1.5-0.2357 0.2357-0.7643-0.23571-1 0-0.02266 0.0227 0 2.2642 0 2.5"/>
  <path d="m52.5 147.48h-7.5-9-3.5-1.5c-0.16667 0-0.5 0.16666-0.5 0 0-0.16667 0.5 0.16666 0.5 0 0-0.23571-0.5-0.2643-0.5-0.5 0-0.16667 0.38215 0.11785 0.5 0 0.11785-0.11786-0.11785-0.38215 0-0.5 4.77e-4 -4.8e-4 1.4977 7.5e-4 1.5 0 0.22361-0.0745 0.28918-0.39459 0.5-0.5 0.27124-0.13563 1.8632 0.13681 2 0 1.2144-1.2144-0.14868-0.73422 1-1.5-0.05694-0.94722 1.1667-0.33334 1.5-0.5 0.21082-0.10541 0.28918-0.39459 0.5-0.5 0.4-0.2 1.1 0.2 1.5 0 1.1381-1.1381-0.10355-0.13215 1-0.5 0.33423-0.11142 2.753-1.3024 3-1.5 0.55216-0.44173 0.91165-1.1078 1.5-1.5 0.43853-0.29236 1.0286-0.2643 1.5-0.5 2.2883-1.1442-2.1217 0.20723 1.5-1 0.31623-0.10541 0.70186 0.14907 1 0 0.21082-0.10541 0.28918-0.39459 0.5-0.5 0.14907-0.0745 0.33333 0 0.5 0 0.48443 0 2.7019 0.0994 3 0 0.35355-0.11786 0.64645-0.38215 1-0.5 0.31623-0.10541 0.70186 0.14907 1 0 0.21082-0.10541 0.28918-0.39459 0.5-0.5 0.14907-0.0745 0.5-0.16667 0.5 0 0 0.16666-0.33333 0-0.5 0h-0.5-2-5.5-14.5"/>
  <path d="m56 133.48c-1.3701-0.39471-2.6362-1.5454-4-2-1.3038-0.43462-2.6962-0.56539-4-1-0.35355-0.11786-0.65398-0.36159-1-0.5-0.48935-0.19574-1.0106-0.30426-1.5-0.5-0.34602-0.13841-0.66667-0.33334-1-0.5-0.33333-0.33334-0.57836-0.78919-1-1-0.29814-0.14908-0.66667 0-1 0h-3.5-5-1c-0.16667 0-0.5 0.16666-0.5 0 0-0.16667 0.35093 0.0745 0.5 0 0.42164-0.21082 0.55279-0.85093 1-1 0.31623-0.10541 0.68377 0.10541 1 0 0.22361-0.0745 0.28918-0.39459 0.5-0.5 0.14907-0.0745 0.35093 0.0745 0.5 0 0.21082-0.10541 0.28918-0.39459 0.5-0.5 0.14907-0.0745 0.38215 0.11785 0.5 0 0.26352-0.26353 0.29328-0.68992 0.5-1 0.13074-0.19612 0.33333-0.33334 0.5-0.5 0.16667-0.16667 0.30388-0.36926 0.5-0.5 0.31009-0.20673 0.68991-0.29328 1-0.5 0.19612-0.13075 0.28918-0.39459 0.5-0.5 0.31426-0.15713 1.6857 0.15713 2 0 0.21082-0.10541 0.28918-0.39459 0.5-0.5 0.14907-0.0745 0.33333 0 0.5 0 0.5 0 1.0257 0.15811 1.5 0 0.15811-0.0527-0.11785-0.38215 0-0.5 0.11785-0.11786 0.33333 0 0.5 0 0.39898 0 2.2 0.1 2.5 0 0.35355-0.11786 0.64645-0.38215 1-0.5 0.3147-0.1049 2.0493 0 2.5 0h6 0.5c0.16667 0 0.38215 0.11785 0.5 0 0.60899-0.609 0.23421-1.1171 1-1.5 0.1431-0.0716 2.2329 0 2.5 0"/>
  <path d="m49 121.98v6.5 1.5c0 0.33333 0.3254 1.0723 0 1-1.6024-0.35609-3-1.3333-4.5-2"/>
  <path d="m31.5 115.48h4.5 6.5c0.419 0 2.2875 0.10625 2.5 0 0.14907-0.0745-0.11785-0.38215 0-0.5 0.14794-0.14794 1.6903 0.15485 2 0 0.21082-0.10541 0.28918-0.39459 0.5-0.5 0.14907-0.0745 0.33333 0 0.5 0h0.5 2.5 3.5 0.5c0.16667 0 0.5-0.16667 0.5 0 0 0.16666-0.66667 0-0.5 0h5 0.5c0.16667 0 0.38215 0.11785 0.5 0 0.11785-0.11786 0-0.33334 0-0.5 0-0.16667 0.07454-0.35093 0-0.5-0.10541-0.21082-0.39459-0.28919-0.5-0.5-0.07454-0.14908 0.11785-0.38215 0-0.5-0.26352-0.26353-0.73648-0.23648-1-0.5-0.11785-0.11786 0-0.33334 0-0.5 0-0.419 0.10625-2.2875 0-2.5-0.07454-0.14908-0.38215 0.11785-0.5 0-0.11785-0.11786 0-0.33334 0-0.5v-4-1 1"/>
  <path d="m30.5 98.484h16 3 0.5c0.16667 0 0.35093-0.07454 0.5 0 0.21082 0.10541 0.28918 0.39459 0.5 0.5 0.11206 0.05603 1.8812 0 2 0h3c0.12126 0 1.4839-0.01608 1.5 0 0.11785 0.11785-0.11785 0.38215 0 0.5s0.33333 0 0.5 0h0.5"/>
  <path d="m30.5 98.484c0.66667-1.3333 1.3333-2.6667 2-4 0.16667-0.33333 0.33333-0.66667 0.5-1 0.16667-0.16667 0.39459-0.28918 0.5-0.5 0.2357-0.4714 0.30426-1.0106 0.5-1.5 0.27682-0.69205 0.66667-1.3333 1-2 0.16667-0.33333 0.23648-0.73648 0.5-1 1.1491-1.1491 1.7685-1.3843 3-2 0.33333-0.16667 0.68991-0.29328 1-0.5 1.022-0.68131-0.0082-1.1639 1-1.5 0.31623-0.10541 0.68377 0.10541 1 0 0.22361-0.07454 0.28918-0.39459 0.5-0.5 0.14907-0.07454 0.35093 0.07454 0.5 0 0.45766-0.22883 0.8782-1.1346 1-1.5 0.05271-0.15811-0.07454-0.35093 0-0.5 0.55276-1.1055 0.31032-0.15516 1-0.5 0.21082-0.10541 0.30388-0.36926 0.5-0.5 0.31009-0.20672 0.68991-0.29328 1-0.5 0.19612-0.13074 0.28918-0.39459 0.5-0.5 0.13147-0.06574 1.7385 0 2 0h0.5c0.16667 0 0.38215-0.11785 0.5 0 0.14448 0.14448-0.1535 1.7698 0 2 0.26149 0.39223 0.73851 0.60777 1 1 0.04432 0.06648 0 2.2402 0 2.5 0 0.16667-0.11785 0.38215 0 0.5s0.42546-0.14907 0.5 0c0.14907 0.29814-0.10541 0.68377 0 1 0.14907 0.44721 0.78918 0.57836 1 1 0.07454 0.14907-0.07454 0.35093 0 0.5 1.0404 2.0809-0.03452-0.53452 1 0.5 0.11785 0.11785-0.11785 0.38215 0 0.5s0.38215-0.11785 0.5 0c0.0584 0.0584-0.04155 1.9377 0 2 0.20672 0.31009 0.73648 0.23648 1 0.5 0.11785 0.11785-0.07454 0.35093 0 0.5 1.0404 2.0809-0.03452-0.53452 1 0.5 0.11785 0.11785-0.11785 0.38215 0 0.5s0.38215-0.11785 0.5 0-0.07454 0.35093 0 0.5c0.10541 0.21082 0.39459 0.28918 0.5 0.5 0.07454 0.14907-0.11785 0.38215 0 0.5s0.38215-0.11785 0.5 0-0.07454 0.35093 0 0.5c0.10541 0.21082 0.33333 0.33333 0.5 0.5 0.33333 1.1667 0.66667 2.3333 1 3.5"/>
  <path d="m31 74.484h6 0.5c0.16667 0 0.38215-0.11785 0.5 0s-0.11785 0.38215 0 0.5 0.33333 0 0.5 0h0.5 8 3 0.5c0.16667 0 0.35093-0.07454 0.5 0 0.21082 0.10541 0.28918 0.39459 0.5 0.5 0.4 0.2 1.1-0.2 1.5 0 0.14907 0.07454-0.11785 0.38215 0 0.5s0.38215-0.11785 0.5 0-0.11785 0.38215 0 0.5c1.3333 0-0.16667-0.16667 0.5 0.5 0.17453 0.17453 1.3962-0.20755 1.5 0 0.66667 1.3333-1 1 1 1"/>
  <path d="m55.5 70.984h-9.5c-0.40935 0-2.176 0.10799-2.5 0-0.35355-0.11785-0.63456-0.42691-1-0.5-0.49029-0.09806-1 0-1.5 0h-2.5c-0.48362 0-2.8517 0.07415-3 0-0.21082-0.10541-0.28918-0.39459-0.5-0.5-0.14907-0.07454-0.5 0.16667-0.5 0s0.66667 0 0.5 0h-1c-0.16667 0-0.35093 0.07454-0.5 0-0.21082-0.10541-0.28918-0.39459-0.5-0.5-0.31426-0.15713-1.6857 0.15713-2 0-0.21082-0.10541-0.28918-0.39459-0.5-0.5-0.14907-0.07454-0.38215 0.11785-0.5 0s0-0.33333 0-0.5-0.11785-0.38215 0-0.5c0.09732-0.09732 2.3174 0.09129 2.5 0 0.14907-0.07454-0.11785-0.38215 0-0.5s0.38215 0.11785 0.5 0c0.26352-0.26352 0.23648-0.73648 0.5-1 0.10222-0.10222 1.3018 0.09912 1.5 0 0.42164-0.21082 0.57836-0.78918 1-1 0.14907-0.07454 0.34189 0.05271 0.5 0 0.35355-0.11785 0.64645-0.38215 1-0.5 0.31623-0.10541 0.70186 0.14907 1 0 0.21082-0.10541 0.28918-0.39459 0.5-0.5 0.14907-0.07454 0.35093 0.07454 0.5 0 0.21082-0.10541 0.28918-0.39459 0.5-0.5 0.14907-0.07454 0.33831 0.04042 0.5 0 0.51131-0.12783 0.98869-0.37217 1.5-0.5 0.16169-0.04042 0.35093 0.07454 0.5 0 0.21082-0.10541 0.28918-0.39459 0.5-0.5 0.30361-0.15181 2.6964 0.15181 3 0 0.21082-0.10541 0.28918-0.39459 0.5-0.5 0.15217-0.07608 1.2748 0 1.5 0h1c0.16667 0 0.38215 0.11785 0.5 0s-0.11785-0.38215 0-0.5c0.02012-0.02012 1.8164 0 2 0h3.5 0.5c0.16667 0 0.38215 0.11785 0.5 0s0-0.33333 0-0.5c0.16667 0 0.35093 0.07454 0.5 0 0.42164-0.21082 0.55279-0.85093 1-1 1.1667-0.38889 1 0.52778 1-0.5 0-0.16667 0.11785-0.38215 0-0.5-0.02266-0.02266-2.2643 0-2.5 0h-15-2.5c-0.33333 0-0.70186 0.14907-1 0-0.14907-0.07454 0.11785-0.38215 0-0.5s-0.33333 0-0.5 0h-0.5-1.5-0.5 1-3-0.5c-0.16667 0-0.38215-0.11785-0.5 0s0 0.33333 0 0.5"/>
  <path d="m32.5 50.484h6 8.5 3 1c0.33333 0 0.68377-0.10541 1 0 0.22361 0.07454 0.28918 0.39459 0.5 0.5 0.30952 0.15476 2.6724-0.1638 3 0 0.21082 0.10541 0.28918 0.39459 0.5 0.5 0.19825 0.09912 1.3978-0.10222 1.5 0 0.11785 0.11785-0.11785 0.38215 0 0.5 4.77e-4 4.77e-4 1.4977-7.55e-4 1.5 0 0.22361 0.07454 0.28918 0.39459 0.5 0.5 0.14907 0.07454 0.5-0.16667 0.5 0s-0.33333 0-0.5 0"/>
  <path d="m44 50.484v-2-7.5-1.5"/>
  <path d="m32 38.484h6.5 13 3.5 1.5c0.16667 0 0.5-0.16667 0.5 0s-0.33333 0-0.5 0"/>
  <path d="m39.5 19.484v5 8 0.5c0 0.16667-0.11785 0.38215 0 0.5 0.02012 0.02012 1.8164 0 2 0h0.5c0.16667 0 0.35093-0.07454 0.5 0 0.21082 0.10541 0.28918 0.39459 0.5 0.5 0.12928 0.06464 2.6456 0 3 0h7c0.68606 0 1.6188 0.26249 2-0.5 0.07454-0.14907 0-0.33333 0-0.5v-0.5-2.5-8.5c0-0.18362 0.02012-1.9799 0-2-0.11785-0.11785-0.35093 0.07454-0.5 0-0.21082-0.10541-0.28918-0.39459-0.5-0.5-0.14758-0.07379-2.9849 0-3.5 0h-0.5c-0.16667 0-0.35093 0.07454-0.5 0-0.21082-0.10541-0.28918-0.39459-0.5-0.5-0.14907-0.07454-0.33333 0-0.5 0h-1-2.5c-0.22518 0-1.3478 0.07608-1.5 0-0.21082-0.10541-0.28918-0.39459-0.5-0.5-0.02356-0.01178-1.4878-0.0073-1.5 0-0.71458 0.42875-1.3333 1-2 1.5z"/>
  <path d="m67 183.98v-17-3.5c0-0.66667-0.07362-1.3374 0-2 0.09385-0.84464 0.37982-1.6587 0.5-2.5 0.04714-0.32999 0-0.66667 0-1v-1.5-6.5-20-9.5-3c0-0.83334 0.11785-1.675 0-2.5-0.05271-0.36894-0.38215-0.64645-0.5-1-0.09403-0.2821 0-1.1714 0-1.5v-4-11.5-3.5c0-0.66667 0.1096-1.3424 0-2-0.11297-0.67783-0.38703-1.3222-0.5-2-0.1044-0.62637 0.15754-2.5274 0-3-0.07454-0.22361-0.39459-0.28918-0.5-0.5-0.09064-0.18129 0.04529-3.2283 0-3.5-0.08665-0.51988-0.33333-1-0.5-1.5-0.16667-0.83333-0.39459-1.6567-0.5-2.5-0.06202-0.49614 0-1 0-1.5v-3c0-0.16667 0.11785-0.38215 0-0.5s-0.38215 0.11785-0.5 0 0-0.33333 0-0.5v-2-4-19c0-1.1667 0.14471-2.3423 0-3.5-0.08523-0.68188-0.40282-1.3197-0.5-2-0.07071-0.49498 0-1 0-1.5v-2.5-0.5c0-0.16667 0.11785-0.38215 0-0.5s-0.5 0.16667-0.5 0 0.33333 0 0.5 0"/>
  <path d="m78.5 161.48v-25.5-5.5c0-0.66667 0.08269-1.3385 0-2-0.41423-3.3138-0.44652-0.73259-1-3.5-0.06537-0.32686 0-0.66667 0-1v-3-0.5c0-0.16667 0.11785-0.38215 0-0.5-0.11785-0.11786-0.38215 0.11785-0.5 0-0.16482-0.16482 0.12061-1.6382 0-2-0.07454-0.22361-0.44283-0.27134-0.5-0.5-0.09149-0.36597 0.05911-2.9409 0-3-0.11785-0.11786-0.38215 0.11785-0.5 0-0.11785-0.11786 0-0.33334 0-0.5v-2c0-0.33334 0.0548-0.67121 0-1-0.11297-0.67784-0.36523-1.3262-0.5-2-0.03269-0.16343 0-0.33334 0-0.5v-2-6"/>
 </g>
</svg>
