<svg width="331.31" height="272.48" version="1.1" viewBox="0 0 331.31 272.48" xmlns="http://www.w3.org/2000/svg">
 <path d="m104.76 151.79c-3.5409-4.8299-0.16927-4.1975-3.0908-8.5583-3.2597-4.5693-4.9937-9.8885-5.6226-10.542-3.5839-3.7248-8.8957-15.101-10.549-24.547-0.55968-3.1979-0.7-6.1745-0.21193-8.558 1.3318-6.504 1.6685-12.207-0.11131-14.829-1.379-2.0316-2.1704-5.2541-2.1472-9.5673 0.0169-3.1537 0.56654-5.597 1.9282-8.7906 0.9288-2.1783 0.75161-4.2002 0.80392-6.9483 0.0777-4.0825 0.47979-8.8927 1.2378-12.92 1.0124-5.3781-2.5013-11.076-2.2514-13.555 1.0999-10.916 12.305-20.724 14.997-22.224 7.4798-4.1673 17.703-10.771 24.692-10.755 17.04 0.04 39.306 0.9374 46.86 4.5038 6.0632 2.8626 12.124 7.8141 16.847 11.197 7.3469 5.2616 12.064 8.8472 13.193 11.22 5.31 11.153 12.566 22.694 13.654 32.263 1.1696 10.282 1.8376 19.003 0.51 24.16-2.614 10.154-5.039 15.993-12.153 26.309-1.0944 1.5868-5.366 4.1198-6.043 6.1426-0.78469 2.3447-2.2187 7.2022-2.8198 13.125-0.48694 4.7983-0.20724 10.369-0.33373 15.29-0.20891 8.1269 0.70694 16.345 3.0085 25.075 1.2537 4.7555 2.5644 10.142 8.7787 12.384 5.2019 11.659-2.9069 25.688-9.1401 34.749-10.551 7.7245-21.688 14.181-27.604 13.858-10.815-0.5898-22.145-0.5908-23.284-1.6087-4.5467-4.0632-34.258-4.515-31.48-40.115 0.17285-2.2155 4.9944-5.1244 6.1775-5.5553 1.6435-0.5987 0.62201 1.9541 0.31406-0.3069-0.15728-1.1547-0.42442-21.635-1.674-21.872-3.0537-0.5795-8.8279-1.8272-10.37-3.0553-2.7417-2.1832-3.0836-3.3736-4.1153-5.969z" fill="#f9f9f9" fill-opacity=".54545" style="paint-order:fill markers stroke"/>
 <path d="m124.43 2.9016e-5c-6.9888-0.016-17.212 6.5886-24.691 10.756-2.6923 1.4999-13.898 11.306-14.998 22.223-0.24983 2.4794 3.2644 8.1786 2.252 13.557-0.23705 1.2592 2.8091-4.7504 3.8577-6.3656 2.7072-4.1703 13.177-8.5259 16.352-10.333 0.76188-0.4336 12.904-3.9768 18.475-4.4547 10.376-0.4461 20.237 0.097 26.997 0.6848 4.3816 0.3811 6.3543 3.2959 7.1775 4.5087-0.3312 0.5864-5.041 21.716-5.041 18.266 0-0.01 5.9714 4.37 8.4994 8.2383 1.0822 1.656 4.3306 3.2385 7.2163 6.6214 0.8853 1.6274 0.30949 8.1444 0.58751 8.9967 2.0069 6.1522 1.0767 9.5379 5.2429 10.89 0.24891 0.6934 1.8586 2.2123 2.4356 5.4552 1.2936 0.944 2.74-4.0467 3.4688-5.9872 1.6354-4.354 1.7226-3.9558 5.4083-4.5617 2.2022-0.362 2.3862 0.2006 4.2018-0.461 4.6512-1.6948 3.539-3.0896 6.3991-3.4515 5.6982-0.721 5.2354-0.2984 7.9876 0.8807 4.147 7.7239 8.7954 13.528-1.364 32.807 5.1409-8.7114 8.3679-16.257 10.6-24.926 1.3276-5.1568 0.65787-13.878-0.51171-24.16-1.0884-9.5689-8.3424-21.109-13.652-32.262-1.1297-2.3729-5.8465-5.9591-13.193-11.221-4.7231-3.3825-10.784-8.3347-16.848-11.197-7.5539-3.5664-29.82-4.4639-46.859-4.5039z" fill="#0f0" fill-opacity=".72868" style="paint-order:fill markers stroke"/>
 <path d="m123.72 124.84c-3.8379 0.6517-8.4578 3.5054-5.7362 2.8442 4.6126-3.5183-2.1523-0.6626-6.8549 1.3471-0.48807 2.3835-9.1127-1.6075-8.553 1.5904 0 0 2.0212 3.2962 4.4815 4.9985 0.62888 0.6536-1.4568 1.7022-3.5903 6.2715-10.351-14.873-10.834-14.294-10.834-14.294 0.28249 0.8988 1.6924 2.8599 1.7584 2.9645 0.17801 0.2821 1.529 1.9442 1.7984 2.3376 0.68591 1.0014 1.7869 3.97 2.8339 5.8819 0.45897 0.8381 1.0376 1.9452 1.6433 2.9326 0.94732 1.5442 1.8798 2.877 1.9015 3.0536 0.24658 2.0081 0.23774 4.4226 1.3227 5.5963 0.42742 0.4623 0.45346 1.3071 0.86795 1.4343 1.0318 2.5954 1.3735 3.7855 4.1152 5.9687 1.6074 1.3323 9.7058 3.6 11.495 2.1558 10.702-2.7832 13.052-2.7538 25.574-8.0784 10.799-3.7878 17.905-9.9854 32.052-20.87 1.0318-5.0145 3.2154-14.074 2.6966-21.111 0 0 1.3645-26.092 0.27255-26.147l-8.0224-2.6066c-1.1192 5.1879-0.76127 11.36-3.3575 15.564-4.2556 2.885-23.265 13.59-23.265 13.59 0 2.8846 3.6732 8.4511 6.0436 11.093 5.3027 5.9107-4.0316 4.0647-8.6032 3.1723-2.2154 0.8514-3.1546 4.0134-4.4725 5.5634-2.1581 2.5382-5.1347 4.7681-7.0167 5.9135-1.1338 0.6901-2.672 0.2438-5.7242-1.6318-3.018-1.8547-0.42757-6.5815-2.8256-9.5349z" fill="#2bff2b" fill-opacity=".30196" style="paint-order:fill markers stroke"/>
 <path d="m109.63 107.37 10.208-0.9349 9.4166-0.4952c2.1108-0.1109 11.56 3.9766 10.765 11.202-0.51897 4.7201-2.6474 1.1701-4.9375-1.1861-1.4247-1.4657-3.2401-2.131-3.444-2.3892-2.0909-2.648-4.2487-0.4675-8.0669-1.4363-2.2886-0.5807-7.5771 0.4379-10.249 0.4182-2.0101-0.015-6.9372 1.891-8.6518 2.3734-1.8852 0.5303-4.135 1.6026-5.3391 3.0961-1.4462 1.7937-0.7988 6.6773-1.0353 10.165l-0.26546 2.2271s-2.6258-4.3118-3.4369-8.1249c-0.2481-1.1664 0.61676-4.8252 0.61676-4.8252 1.8405-1.6983 2.37-4.8737 4.0456-6.2828 0.75332-0.6335 2.3096-0.3931 3.9407-0.9492 3.114-1.0617 6.6541-2.7294 6.4334-2.8582z" fill="#2bff2b" fill-opacity=".30196" style="paint-order:fill markers stroke"/>
 <path d="m116.46 58.915c4.3048-1.6504 8.0668-3.9521 13.763-3.9325 1.0564 0 12.688 2.318 14.266 3.2144 2.4847 1.4117 4.7656 3.7405 6.8266 7.059 0.726 1.9158 0.76116 2.4486-0.19415 1.9977-2.4372-1.1504-4.556-2.3782-6.5494-3.4875-6.8771-3.8268-12.261-6.2433-24.068 0.7909-0.22184 0.1322-7.4123 5.068-9.3224 3.3024l-0.22471-4.6063c2.1348-2.8265 4.5159-3.9599 5.5022-4.3381z" fill-opacity=".43137" style="paint-order:fill markers stroke"/>
 <path d="m84.952 66.402c-1.3617 3.1936-1.7519 5.5579-1.7688 7.3609 0.31867-3.6575 1.9076-1.9283 4.5546-2.3826 1.1344 0.2221 5.6432 2.4878 6.5143 0.9933 0.67326-1.1552 2.2619-4.1207 1.2717-4.4886-3.6192-3.0904-8.3615-1.5224-10.572-1.483z" fill-opacity=".43137" style="paint-order:fill markers stroke"/>
 <path d="m111.42 189.05c-3.2701 0.2927-8.8394 3.5319-11.211 4.3862-4.0491 1.4586-13.235 2.126-18.797 2.881-7.8198 1.0616-5.9574 1.8874-5.9574 1.8874-3.9504-0.091-24.713 7.0632-33.854 12.199-6.4082 3.6004-20.272 4.0005-28.109 23.265l-8.5 20.744c-0.90702 2.2136-6.8238 18.07-4.4316 18.068l330.26-0.25c2.3921 0-4.8554-12.579-6.1836-14.568-13.387-20.054-17.773-28.714-31.91-43.436-19.532-8.7677-41.123-15.475-61.84-23.058-6.2785-2.2981-11.225-6.7766-17.13-8.4523-1.1956-0.3392-2.7909-1.8619-4.2427-2.8492-1.712-0.891-6.3559-2.9479-9.1353-2.3298 0.39331 0.5588 1.3069 1.6953 1.9144 2.0629 0.9523 0.8913 2.1688 1.5375 3.6341 2.066 5.2019 11.659-2.9067 25.687-9.1399 34.748-10.551 7.7245-21.688 14.182-27.604 13.859-10.815-0.5898-22.367-0.4589-23.506-1.4768-4.5467-4.0632-33.932-4.7779-31.155-40.378 0.17285-2.2155 4.8898-4.9938 6.0729-5.4247 0.14364-0.052 0.26005-0.075 0.36524-0.084-0.0159-0.081-0.0373-0.1237-0.0508-0.2227l-0.15697-0.9465c-3.6642 0.9853-6.5237 2.049-9.3352 7.3079z" fill="#50002f" fill-opacity=".72093" stroke-width="0" style="paint-order:fill markers stroke"/>
 <g fill="none">
  <path d="m95.213 117.46c-0.07101 0.01-0.2034 0.0999-0.21304 0.0289-0.0096-0.071 0.14138-0.0289 0.21304-0.0289 1.0957 0 2.1913 0.0205 3.287 0.0289 0.49992 4e-3 1.0001 0 1.5 0h13.5 3.5c0.32855 0 1.2179 0.094 1.5 0 0.35355-0.11786 0.64645-0.38215 1-0.5 0.15811-0.0527 0.34189 0.0527 0.5 0 0.35355-0.11786 0.64645-0.38215 1-0.5 0.15811-0.0527 0.35093 0.0745 0.5 0 0.21082-0.10541 0.28918-0.39459 0.5-0.5 0.26439-0.1322 1.7564 0.0609 2 0 0.36155-0.0904 0.64645-0.38215 1-0.5 0.15811-0.0527 0.35093 0.0745 0.5 0 2.2883-1.1442-2.1217 0.20723 1.5-1 0.15811-0.0527 0.38215 0.11785 0.5 0 0.11785-0.11786-0.11785-0.38215 0-0.5 2.4203-2.4203-0.37639 1.0843 2-0.5 0.31009-0.20673 0.18991-0.79328 0.5-1 1.5-1 0.5 0.5 1.5 0 0.21082-0.10541 0.28918-0.39459 0.5-0.5 0.14907-0.0745 0.34189 0.0527 0.5 0 0.35355-0.11786 0.64645-0.38215 1-0.5 0.15811-0.0527 0.35093 0.0745 0.5 0 0.6-0.3 0.9-1.2 1.5-1.5 0.31893-0.15947 2.3663 0.13367 2.5 0 0.11785-0.11786-0.11785-0.38215 0-0.5 0.11785-0.11786 0.38215 0.11785 0.5 0 0.2357-0.23571-0.14907-0.70186 0-1 0.10541-0.21082 0.33333-0.33334 0.5-0.5 0.16667-0.16667 0.28918-0.39459 0.5-0.5 0.14907-0.0745 0.38215 0.11785 0.5 0 0.10222-0.10222-0.0991-1.3018 0-1.5 0.10541-0.21082 0.33333-0.33334 0.5-0.5 0.16667-0.16667 0.27639-0.42547 0.5-0.5 0.31623-0.10541 0.7643 0.2357 1 0 0.78656-0.78656 0.21344-1.7134 1-2.5 1.9514-1.9514 0.26852 0.11573 1.5-0.5 0.38194-0.19098 1.1614-1.3872 1.5-1.5 0.31623-0.10541 0.70186 0.14907 1 0 0.14907-0.0745-0.0745-0.35093 0-0.5 0.0664-0.13276 1.3672-1.4336 1.5-1.5 0.14907-0.07454 0.33333 0 0.5 0s0.38215-0.11785 0.5 0c0.0161 0.01608 0 1.3787 0 1.5v4c0 0.16666 0.11785 0.38214 0 0.5-0.11785 0.11785-0.38215-0.11786-0.5 0-0.12032 0.12031 0.12032 1.8797 0 2-0.11785 0.11785-0.38215-0.11786-0.5 0-0.2357 0.2357 0.2357 0.76429 0 1-0.2357 0.2357-0.85093-0.29815-1 0-0.14907 0.29814 0.1849 0.72265 0 1-0.20672 0.31008-0.73648 0.23647-1 0.5-1.0345 1.0345 1.5809-0.0404-0.5 1-0.14907 0.0745-0.38215-0.11786-0.5 0-0.33218 0.33218 0.33218 0.66782 0 1-0.11785 0.11785-0.35093-0.0745-0.5 0-0.21082 0.10541-0.28918 0.39459-0.5 0.5-0.14907 0.0745-0.38215-0.11786-0.5 0-0.11785 0.11785 0.11785 0.38214 0 0.5-0.11785 0.11785-0.38215-0.11786-0.5 0-0.11785 0.11785 0.11785 0.38214 0 0.5-0.11785 0.11785-0.35093-0.0745-0.5 0-0.21082 0.10541-0.33333 0.33333-0.5 0.5-0.16667 0.16666-0.39459 0.28918-0.5 0.5-0.0745 0.14907 0.11785 0.38214 0 0.5-0.11785 0.11785-0.38215-0.11786-0.5 0-0.11785 0.11785 0.0745 0.35092 0 0.5-0.21082 0.42163-0.85093 0.55278-1 1-0.10541 0.31622 0.10541 0.68377 0 1-0.11286 0.33857-1.309 1.118-1.5 1.5-0.14907 0.29814 0.2357 0.76429 0 1-0.11785 0.11785-0.34189-0.0527-0.5 0-0.35355 0.11785-0.68991 0.29327-1 0.5-0.68785 0.45856-0.51424 0.77136-1 1.5-0.26149 0.39223-0.78918 0.57836-1 1-0.14907 0.29814 0.14907 0.70185 0 1-0.19097 0.38194-1.3871 1.1614-1.5 1.5-7.6e-4 2e-3 4.8e-4 1.4995 0 1.5-0.2357 0.2357-0.7643-0.23571-1 0-0.26352 0.26352-0.29328 0.68991-0.5 1-0.14129 0.21193-1.2931 1.3966-1.5 1.5-0.29814 0.14907-0.7643-0.23571-1 0-0.11785 0.11785 0.11785 0.38214 0 0.5-0.11785 0.11785-0.35093-0.0745-0.5 0-0.21082 0.10541-0.33333 0.33333-0.5 0.5-0.16667 0.16666-0.39459 0.28918-0.5 0.5-0.26667 0.53333 0.49497 0.66834-0.5 1-0.47434 0.15811-1 0-1.5 0-0.16667 0-0.42546-0.14908-0.5 0-0.14907 0.29814 0.14907 0.70185 0 1-0.0745 0.14907-0.35093-0.0745-0.5 0-1.052 0.52602 0.052 0.47397-1 1-0.31893 0.15946-2.3663-0.13368-2.5 0-1.0345 1.0345 1.5809-0.0404-0.5 1-0.14907 0.0745-0.35093-0.0745-0.5 0-0.21082 0.10541-0.28918 0.39459-0.5 0.5-0.11207 0.056-1.8812 0-2 0h-3-5c-0.11882 0-1.8879 0.056-2 0-0.42164-0.21082-0.57836-0.78919-1-1-0.29814-0.14908-0.7643 0.2357-1 0-0.2357-0.23571 0.2357-0.7643 0-1-0.11785-0.11786-0.36132 0.0924-0.5 0-0.36979-0.24653-1.5887-1.7944-2-2-0.27124-0.13563-1.8632 0.13681-2 0-0.11785-0.11786 0.11785-0.38215 0-0.5-0.11785-0.11786-0.38215 0.11785-0.5 0-0.11785-0.11786 0.14907-0.42547 0-0.5-0.29814-0.14908-0.68377 0.10541-1 0-0.22361-0.0745-0.28918-0.39459-0.5-0.5-0.14829-0.0742-2.5164 0-3 0h-0.5c-0.16667 0-0.38215 0.11785-0.5 0-0.11785-0.11786 0-0.33334 0-0.5 0-0.16667-0.16667-0.5 0-0.5s0.11785 0.61785 0 0.5c-0.26352-0.26353-0.23648-0.73648-0.5-1-0.11785-0.11786-0.38215 0.11785-0.5 0-0.26352-0.26353-0.23648-0.73648-0.5-1-0.11785-0.11786-0.35093 0.0745-0.5 0-0.42164-0.21082-0.57836-0.78919-1-1-0.19825-0.0991-1.3978 0.10221-1.5 0-0.10222-0.10222 0.09912-1.3018 0-1.5-0.10541-0.21082-0.39459-0.28919-0.5-0.5-0.2-0.4 0.2-1.1 0-1.5-0.07454-0.14908-0.38215 0.11785-0.5 0-0.11785-0.11786 0-0.33334 0-0.5 0-0.34777 0.09041-2.3192 0-2.5-0.10541-0.21082-0.42546-0.2764-0.5-0.5-0.10541-0.31623 0-0.66667 0-1v-0.5c0-0.16667-0.11785-0.38215 0-0.5 0.11785-0.11786 0.33333 0 0.5 0h1c0.30391 0 1.8139-0.0817 2 0 0.60106 0.26374 1.142 0.64739 1.713 0.97109z" stroke="#f00" stroke-width="3.9"/>
  <path d="m111.18 67.86c1.2726 0.7083 2.4546 1.6119 3.8177 2.1249 0.75595 0.28449 0.40235-0.90235 0.5-1 0.11785-0.11785 0.33333 0 0.5 0h2.5c0.16667 0 0.38215 0.11785 0.5 0s-0.11785-0.38215 0-0.5 0.35093 0.07454 0.5 0c0.42164-0.21082 0.57836-0.78918 1-1 0.4-0.2 1.1 0.2 1.5 0 0.14907-0.07454-0.11785-0.38215 0-0.5s0.33333 0 0.5 0c0.16667-0.33333 0.29328-0.68991 0.5-1-0.0499-0.99053 0.73648-0.23648 1-0.5 0.11785-0.11785-0.11785-0.38215 0-0.5s0.35093 0.07454 0.5 0c0.21082-0.10541 0.30388-0.36926 0.5-0.5 0.31009-0.20672 0.73648-0.23648 1-0.5s0.23648-0.73648 0.5-1c0.2357-0.2357 0.68377 0.10541 1 0 3.6217-1.2072-0.7883 0.14415 1.5-1 0.14907-0.07454 0.35093 0.07454 0.5 0 0.21082-0.10541 0.28918-0.39459 0.5-0.5 0.14907-0.07454 0.33333 0 0.5 0h0.5 3 3 0.5c0.16667 0 0.35093-0.07454 0.5 0 2.0809 1.0404-0.53452-0.03452 0.5 1 0.2357 0.2357 0.7643-0.2357 1 0 0.26352 0.26352 0.23648 0.73648 0.5 1 0.10222 0.10222 1.3018-0.09912 1.5 0 0.21082 0.10541 0.28918 0.39459 0.5 0.5 0.29814 0.14907 0.7643-0.2357 1 0s-0.2357 0.7643 0 1c0.11785 0.11785 0.38215-0.11785 0.5 0s-0.0745 0.35093 0 0.5c1.0404 2.0809-0.0345-0.53452 1 0.5 0.11785 0.11785 0 0.33333 0 0.5v0.5c0 0.12126-0.0161 1.4839 0 1.5 0.26352 0.26352 0.73648 0.23648 1 0.5 0.11785 0.11785 0 0.33333 0 0.5v0.5 3c0 0.16667-0.11785 0.38215 0 0.5s0.38215-0.11785 0.5 0 0 0.33333 0 0.5v2 2c0 0.16667 0.14907 0.42546 0 0.5-0.29814 0.14907-0.66667 0-1 0-0.16667 0-0.38215-0.11785-0.5 0s0.11785 0.38215 0 0.5c-0.33218 0.33218-0.66782-0.33218-1 0-0.66667 0.66667 0.83333 0.5-0.5 0.5-0.13303 0-1.4587-0.08257-1.5 0-0.14907 0.29814 0.14907 0.70186 0 1-0.0745 0.14907-0.33333 0-0.5 0h-2.5c-0.16667 0-0.38215-0.11785-0.5 0s0.11785 0.38215 0 0.5-0.38215-0.11785-0.5 0 0.14907 0.42546 0 0.5c-0.29814 0.14907-0.70186-0.14907-1 0-0.14907 0.07454 0.11785 0.38215 0 0.5s-0.38215-0.11785-0.5 0 0.11785 0.38215 0 0.5-0.35093-0.07454-0.5 0c-0.21082 0.10541-0.28918 0.39459-0.5 0.5-0.14907 0.07454-0.38215-0.11785-0.5 0s0.11785 0.38215 0 0.5-0.35093-0.07454-0.5 0c-0.21082 0.10541-0.28918 0.39459-0.5 0.5-0.14758 0.07379-2.9849 0-3.5 0h-7.5-4.5-0.5c-0.16667 0-0.38215 0.11785-0.5 0-0.15482-0.15482 0.15482-2.3452 0-2.5-0.11785-0.11785-0.38215 0.11785-0.5 0s0.11785-0.38215 0-0.5-0.42546 0.14907-0.5 0c-0.22361-0.44721 0-1 0-1.5v-2.5c0-0.16667 0.11785-0.38215 0-0.5s-0.42546 0.14907-0.5 0c-0.22361-0.44721 0-1 0-1.5v-4c0-0.18362-0.0201-1.9799 0-2 0.11785-0.11785 0.33333 0 0.5 0h3.5" stroke="#000" stroke-width="5"/>
  <path d="m84 79.484c0.66667-0.16667 1.3262-0.36523 2-0.5 0.57473-0.11495 0.6098 0.28041 1-0.5 0.14907-0.29814-0.2357-0.7643 0-1 0.11785-0.11785 0.38215 0.11785 0.5 0s-0.14907-0.42546 0-0.5c0.29814-0.14907 0.66667 0 1 0 0.16667 0 0.38215 0.11785 0.5 0s0-0.33333 0-0.5c0-0.33333-0.14907-0.70186 0-1 0.04128-0.08257 1.367 0 1.5 0 0.32846 0 1.8824-0.05879 2 0 0.14907 0.07454 0 0.33333 0 0.5v3 6.5 2 1-1 4 1.5 0.5c0-0.33333 0.33333-1 0-1-0.37268 0-0.23648 0.73648-0.5 1-0.2357 0.2357-0.7643-0.2357-1 0-0.11785 0.11785 0.11785 0.38215 0 0.5s-0.33333 0-0.5 0h-0.5-0.5 1-2.5c-0.12126 0-1.4839 0.01608-1.5 0-0.2357-0.2357 0.2357-0.7643 0-1-0.11785-0.11785-0.38215 0.11785-0.5 0s0-0.33333 0-0.5v-0.5-2.5-0.5c0-0.16667 0.07454-0.35093 0-0.5-0.61785-1.2357-0.5 0.17259-0.5-1v-2c0-0.16667 0.11785-0.38215 0-0.5s-0.38215 0.11785-0.5 0 0.11785-0.38215 0-0.5-0.38215 0.11785-0.5 0c-0.2357-0.2357 0.2357-0.7643 0-1-0.11785-0.11785-0.38215 0.11785-0.5 0s0.07454-0.35093 0-0.5c-0.10541-0.21082-0.42546-0.27639-0.5-0.5-0.10541-0.31623 0.10541-0.68377 0-1-0.51384-1.5415-1.6788 1.2682 0.5-2z" stroke="#000" stroke-width="3"/>
 </g>
</svg>
