<?xml version="1.0" encoding="UTF-8" standalone="no"?>
<!-- Created with Inkscape (http://www.inkscape.org/) -->

<svg
   xmlns:dc="http://purl.org/dc/elements/1.1/"
   xmlns:cc="http://creativecommons.org/ns#"
   xmlns:rdf="http://www.w3.org/1999/02/22-rdf-syntax-ns#"
   xmlns:svg="http://www.w3.org/2000/svg"
   xmlns="http://www.w3.org/2000/svg"
   xmlns:sodipodi="http://sodipodi.sourceforge.net/DTD/sodipodi-0.dtd"
   xmlns:inkscape="http://www.inkscape.org/namespaces/inkscape"
   version="1.1"
   id="svg815"
   width="331.30762"
   height="272.48444"
   viewBox="0 0 331.30762 272.48444"
   sodipodi:docname="Ali_Avatar_V1.svg"
   inkscape:version="0.92.3 (2405546, 2018-03-11)">
  <metadata
     id="metadata821">
    <rdf:RDF>
      <cc:Work
         rdf:about="">
        <dc:format>image/svg+xml</dc:format>
        <dc:type
           rdf:resource="http://purl.org/dc/dcmitype/StillImage" />
        <dc:title />
      </cc:Work>
    </rdf:RDF>
  </metadata>
  <defs
     id="defs819" />
  <sodipodi:namedview
     pagecolor="#ffffff"
     bordercolor="#666666"
     borderopacity="1"
     objecttolerance="10"
     gridtolerance="10"
     guidetolerance="10"
     inkscape:pageopacity="0"
     inkscape:pageshadow="2"
     inkscape:window-width="1920"
     inkscape:window-height="986"
     id="namedview817"
     showgrid="false"
     showguides="true"
     inkscape:guide-bbox="true"
     inkscape:zoom="1"
     inkscape:cx="268.31001"
     inkscape:cy="94.572882"
     inkscape:window-x="-11"
     inkscape:window-y="-11"
     inkscape:window-maximized="1"
     inkscape:current-layer="svg815" />
  <path
     sodipodi:nodetypes="ccsssssssssssssssssssssccsssssssc"
     inkscape:connector-curvature="0"
     id="path898"
     d="m 104.75745,151.79493 c -3.5409,-4.8299 -0.16927,-4.1975 -3.09082,-8.5583 -3.259652,-4.5693 -4.993712,-9.8885 -5.622592,-10.5421 -3.58386,-3.7248 -8.895715,-15.1013 -10.548855,-24.5471 -0.55968,-3.1979 -0.7,-6.1745 -0.21193,-8.558001 1.33184,-6.504 1.66852,-12.2072 -0.11131,-14.8293 -1.37898,-2.0316 -2.17035,-5.2541 -2.14719,-9.5673 0.0169,-3.1537 0.56654,-5.597 1.92824,-8.7906 0.9288,-2.1783 0.75161,-4.2002 0.80392,-6.9483 0.0777,-4.0825 0.47979,-8.8927 1.23784,-12.9195 1.01243,-5.3781 -2.50126,-11.0758 -2.25143,-13.5552 1.09993,-10.9161 12.304735,-20.7241 14.997005,-22.224 C 107.22017,6.587929 117.44367,-0.01567098 124.43251,6.2901639e-4 141.47225,0.04062902 163.73809,0.93802902 171.29202,4.504429 c 6.06322,2.8626 12.12367,7.8141 16.84678,11.1966 7.34688,5.2616 12.06374,8.8472 13.19346,11.2201 5.30997,11.153 12.56551,22.6941 13.65393,32.263 1.16959,10.2824 1.83759,19.003 0.51,24.1598 -2.61401,10.1537 -5.03896,15.9933 -12.15315,26.308501 -1.09436,1.5868 -5.36597,4.1198 -6.04295,6.1426 -0.78469,2.3447 -2.21872,7.2022 -2.81981,13.1254 -0.48694,4.7983 -0.20724,10.3693 -0.33373,15.2899 -0.20891,8.1269 0.70694,16.3449 3.0085,25.0754 1.25366,4.7555 2.56435,10.1425 8.77873,12.3838 5.20193,11.6592 -2.90688,25.6875 -9.14011,34.7491 -10.55063,7.7245 -21.68827,14.181 -27.60408,13.8584 -10.81479,-0.5898 -22.14462,-0.5908 -23.28373,-1.6087 -4.54666,-4.0632 -34.25793,-4.515 -31.48049,-40.1149 0.17285,-2.2155 4.99439,-5.1244 6.17747,-5.5553 1.64354,-0.5987 0.62201,1.9541 0.31406,-0.3069 -0.15728,-1.1547 -0.42442,-21.6349 -1.67403,-21.872 -3.05367,-0.5795 -8.82787,-1.8272 -10.37008,-3.0553 -2.74174,-2.1832 -3.08358,-3.3736 -4.11534,-5.969 z"
     style="opacity:1;fill:#ae805c;fill-opacity:0.47674417;stroke:none;stroke-width:32.83478546;stroke-linecap:round;stroke-linejoin:round;stroke-miterlimit:4;stroke-dasharray:none;stroke-opacity:1;paint-order:fill markers stroke" />
  <path
     sodipodi:nodetypes="ccsssscscsscsccsssscccsccsc"
     inkscape:connector-curvature="0"
     id="path900"
     d="M 124.43251,2.9016393e-5 C 117.44367,-0.01597098 107.22094,6.588629 99.741098,10.755929 c -2.69227,1.4999 -13.898105,11.3065 -14.998035,22.2226 -0.24983,2.4794 3.26438,8.1786 2.25195,13.5567 -0.23705,1.2592 2.809145,-4.7504 3.857685,-6.3656 2.70722,-4.1703 13.176992,-8.5259 16.352272,-10.3329 0.76188,-0.4336 12.90439,-3.9768 18.47517,-4.4547 10.37642,-0.4461 20.23659,0.097 26.99735,0.6848 4.38163,0.3811 6.35428,3.2959 7.17746,4.5087 -0.3312,0.5864 -5.04095,21.7161 -5.04095,18.2662 0,-0.01 5.97141,4.37 8.49935,8.2383 1.08219,1.656 4.3306,3.2385 7.21627,6.6214 0.8853,1.6274 0.30949,8.1444 0.58751,8.9967 2.00686,6.1522 1.07666,9.5379 5.24293,10.8896 0.24891,0.6934 1.85857,2.2123 2.4356,5.4552 1.2936,0.944 2.73995,-4.0467 3.46885,-5.9872 1.63543,-4.354 1.72259,-3.9558 5.40833,-4.5617 2.20221,-0.362 2.38624,0.2006 4.20185,-0.461 4.65124,-1.6948 3.53901,-3.0896 6.39913,-3.4515 5.69819,-0.721 5.23535,-0.2984 7.98757,0.8807 4.14699,7.7239 8.7954,13.5283 -1.36404,32.807401 5.14091,-8.711401 8.3679,-16.257101 10.59961,-24.925801 1.32758,-5.1568 0.65787,-13.8778 -0.51171,-24.1602 -1.08843,-9.5689 -8.34238,-21.1087 -13.65235,-32.2617 -1.12972,-2.3729 -5.84648,-5.9591 -13.19336,-11.2207 -4.72311,-3.3825 -10.78443,-8.3347 -16.84765,-11.1973 C 163.73796,0.93752902 141.47225,0.04002902 124.43251,2.9016393e-5 Z"
     style="opacity:1;fill:#000000;fill-opacity:0.72868216;stroke:none;stroke-width:32.83478546;stroke-linecap:round;stroke-linejoin:round;stroke-miterlimit:4;stroke-dasharray:none;stroke-opacity:1;paint-order:fill markers stroke" />
  <path
     sodipodi:nodetypes="ccccccsssssssccccccscccscsssc"
     inkscape:connector-curvature="0"
     id="path902"
     d="m 123.71746,124.83643 c -3.83791,0.6517 -8.45785,3.5054 -5.73615,2.8442 4.61257,-3.5183 -2.1523,-0.6626 -6.85488,1.3471 -0.48807,2.3835 -9.11267,-1.6075 -8.55299,1.5904 0,0 2.02121,3.2962 4.48149,4.9985 0.62888,0.6536 -1.45677,1.7022 -3.59031,6.2715 -10.350912,-14.8729 -10.834102,-14.2939 -10.834102,-14.2939 0.28249,0.8988 1.69243,2.8599 1.75844,2.9645 0.17801,0.2821 1.52903,1.9442 1.79845,2.3376 0.68591,1.0014 1.7869,3.97 2.83393,5.8819 0.45897,0.8381 1.037552,1.9452 1.643272,2.9326 0.94732,1.5442 1.87979,2.877 1.90147,3.0536 0.24658,2.0081 0.23774,4.4226 1.3227,5.5963 0.42742,0.4623 0.45346,1.3071 0.86795,1.4343 1.03176,2.5954 1.37349,3.7855 4.11523,5.9687 1.60736,1.3323 9.70584,3.6 11.49468,2.1558 10.70243,-2.7832 13.05183,-2.7538 25.57406,-8.0784 10.79932,-3.7878 17.90486,-9.9854 32.05173,-20.8703 1.03178,-5.0145 3.21538,-14.0738 2.69659,-21.1107 0,0 1.36453,-26.091601 0.27255,-26.146701 l -8.02245,-2.6066 c -1.11918,5.1879 -0.76127,11.3605 -3.35753,15.5636 -4.25564,2.885 -23.26549,13.590101 -23.26549,13.590101 0,2.8846 3.67317,8.4511 6.0436,11.0934 5.30266,5.9107 -4.03155,4.0647 -8.6032,3.1723 -2.21544,0.8514 -3.15463,4.0134 -4.47249,5.5634 -2.15807,2.5382 -5.13469,4.7681 -7.01672,5.9135 -1.13379,0.6901 -2.67204,0.2438 -5.72424,-1.6318 -3.01803,-1.8547 -0.42757,-6.5815 -2.82559,-9.5349 z"
     style="opacity:1;fill:#000000;fill-opacity:0.43137255;stroke:none;stroke-width:32.83478546;stroke-linecap:round;stroke-linejoin:round;stroke-miterlimit:4;stroke-dasharray:none;stroke-opacity:1;paint-order:fill markers stroke" />
  <path
     sodipodi:nodetypes="ccssssssssccssssc"
     inkscape:connector-curvature="0"
     id="path904"
     d="m 109.63275,107.36533 10.20793,-0.9349 9.41662,-0.4952 c 2.11085,-0.1109 11.55956,3.9766 10.76506,11.2025 -0.51897,4.7201 -2.64736,1.1701 -4.93754,-1.1861 -1.42468,-1.4657 -3.2401,-2.131 -3.44404,-2.3892 -2.09087,-2.648 -4.24866,-0.4675 -8.06694,-1.4363 -2.28856,-0.5807 -7.57713,0.4379 -10.24902,0.4182 -2.01014,-0.015 -6.93718,1.891 -8.65178,2.3734 -1.88516,0.5303 -4.13499,1.6026 -5.339142,3.0961 -1.44621,1.7937 -0.7988,6.6773 -1.03527,10.1647 l -0.26546,2.2271 c 0,0 -2.62576,-4.3118 -3.43689,-8.1249 -0.2481,-1.1664 0.61676,-4.8252 0.61676,-4.8252 1.84048,-1.6983 2.37005,-4.8737 4.04559,-6.2828 0.753322,-0.6335 2.309632,-0.3931 3.940712,-0.9492 3.11395,-1.0617 6.6541,-2.7294 6.43341,-2.8582 z"
     style="opacity:1;fill:#000000;fill-opacity:0.43137255;stroke:none;stroke-width:11.05558014;stroke-linecap:round;stroke-linejoin:round;stroke-miterlimit:4;stroke-dasharray:none;stroke-opacity:1;paint-order:fill markers stroke" />
  <path
     sodipodi:nodetypes="ssscsssccs"
     inkscape:connector-curvature="0"
     id="path906"
     d="m 116.45981,58.915129 c 4.30476,-1.6504 8.0668,-3.9521 13.76324,-3.9325 1.05635,0 12.68848,2.318 14.26617,3.2144 2.48469,1.4117 4.7656,3.7405 6.82658,7.059 0.726,1.9158 0.76116,2.4486 -0.19415,1.9977 -2.43716,-1.1504 -4.55604,-2.3782 -6.54943,-3.4875 -6.87707,-3.8268 -12.26064,-6.2433 -24.06752,0.7909 -0.22184,0.1322 -7.41233,5.068 -9.32242,3.3024 l -0.22471,-4.6063 c 2.1348,-2.8265 4.51588,-3.9599 5.50224,-4.3381 z"
     style="opacity:1;fill:#000000;fill-opacity:0.43137255;stroke:none;stroke-width:10.0724411;stroke-linecap:round;stroke-linejoin:round;stroke-miterlimit:4;stroke-dasharray:none;stroke-opacity:1;paint-order:fill markers stroke" />
  <path
     sodipodi:nodetypes="cccscc"
     inkscape:connector-curvature="0"
     id="path908"
     d="m 84.952043,66.402429 c -1.3617,3.1936 -1.75193,5.5579 -1.76883,7.3609 0.31867,-3.6575 1.90759,-1.9283 4.55462,-2.3826 1.134385,0.2221 5.643225,2.4878 6.514295,0.9933 0.67326,-1.1552 2.26193,-4.1207 1.27172,-4.4886 -3.6192,-3.0904 -8.361525,-1.5224 -10.571805,-1.483 z"
     style="opacity:1;fill:#000000;fill-opacity:0.43137255;stroke:none;stroke-width:10.0724411;stroke-linecap:round;stroke-linejoin:round;stroke-miterlimit:4;stroke-dasharray:none;stroke-opacity:1;paint-order:fill markers stroke" />
  <path
     inkscape:connector-curvature="0"
     id="path910"
     d="m 143.40124,50.259529 c -0.4712,0.018 -0.9777,0.056 -1.5078,0.1055 -1.441,0.1358 -3.0577,0.3734 -4.627,0.6035 -0.1628,0.024 -0.3267,0.045 -0.4883,0.068 -1.1449,0.168 -2.2524,0.3279 -3.2304,0.4394 -0.4893,0.056 -0.9474,0.099 -1.3614,0.125 -0.413,0.026 -0.7839,0.037 -1.0996,0.024 -1.2826,-0.053 -2.5894,0.01 -3.8984,0.1562 -1.3091,0.1512 -2.6208,0.3952 -3.9121,0.7129 -2.5826,0.6355 -5.0856,1.5669 -7.332,2.6426 -1.1233,0.5378 -2.1814,1.1118 -3.1543,1.7031 -1.9453,1.1823 -3.5458,2.4337 -4.625,3.6035 -0.2698,0.2926 -0.5072,0.5795 -0.709,0.8594 -0.2026,0.2807 -0.3694,0.5531 -0.4981,0.8164 -0.389,0.7961 -0.9272,1.5577 -1.4218,2.125 -4e-4,4e-4 3e-4,0 0,0 -0.247,0.2829 -0.4839,0.5181 -0.6856,0.6836 -0.2021,0.1658 -0.3697,0.2618 -0.4785,0.2695 -0.5155,0.037 -1.1398,0.1858 -1.8145,0.4004 -0.6746,0.2147 -1.3997,0.4961 -2.1191,0.7988 -1.438802,0.6055 -2.852402,1.2961 -3.783202,1.7129 -0.3329,0.1491 -0.7205,0.1336 -1.0352,0.082 -0.3146,-0.051 -0.5561,-0.1392 -0.5957,-0.1367 -0.55,0.032 -1.1529,-0.2143 -1.7109,-0.5312 -0.558,-0.3169 -1.0711,-0.7051 -1.4434,-0.9571 -0.2481,-0.168 -0.4335,-0.2756 -0.5273,-0.2617 -0.4521,0.067 -0.7543,0.053 -1.0352,0.01 -0.4212,-0.07 -0.7932,-0.2119 -1.5429,-0.2539 -0.749695,-0.042 -1.877795,0.015 -3.812495,0.3418 -0.6764,0.2298 -1.206,0.4087 -1.7383,0.6152 -1.0647,0.4129 -2.1383,0.9367 -4.4043,2.1953 -1.133,0.6294 -2.5637,1.4419 -4.4414,2.5176 -3.8844,3.3344 -4.6775,6.8567 -4.5586,10.3965 0.072,2.1237 0.4708,4.2545 0.7285,6.3535 0.2437,0.7195 0.5015,1.3973 0.7617,2.0293 0.5205,1.264 1.0534,2.3436 1.5215,3.1973 0.4681,0.8536 0.8712,1.4807 1.1289,1.8437 0.3866,0.5444 0.4471,0.4923 -0.084,-0.293 0.8083,1.0049 1.3163,1.7848 1.877,2.4766 0.1868,0.2306 0.3799,0.452 0.5918,0.668 0.8477,0.8633 2.0012,1.650501 4.3008,2.681601 0.112,0.05 0.2995,0.08 0.5429,0.094 0.2431,0.014 0.5432,0.012 0.8809,0 0.3378,-0.016 0.7149,-0.045 1.1113,-0.084 1.1914,-0.1173 2.5664,-0.3246 3.6328,-0.5313 0.711,-0.1378 1.2857,-0.2754 1.578195,-0.3867 0.5054,-0.192401 1.0022,-0.413501 1.4628,-0.640601 0.4612,-0.2275 0.8869,-0.4614 1.2481,-0.6836 0.3611,-0.2222 0.6592,-0.4327 0.8652,-0.6094 0.1026,-0.088 0.1824,-0.1671 0.2364,-0.2363 5e-4,-7e-4 -5e-4,0 0,0 0.054,-0.069 0.082,-0.1263 0.08,-0.1718 -0.03,-0.6742 -0.047,-1.3384 -0.041,-1.8907 -2.122,1.5602 -7.280395,5.266301 -10.453095,4.205101 -4.7906,-1.602401 -6.2149,-4.323301 -7.9649,-6.914101 -0.6713,-1.2565 -1.4484,-2.827 -2.1289,-4.8359 -0.5321,-3.3369 -1.3261,-6.379 -0.3691,-9.3828 1.1689,-5.442 3.9417,-6.1719 5.6895,-7.5938 2.9407,-1.5727 6.6469,-3.348 8.8867,-3.4492 1.3439,-0.061 2.699995,0.1318 3.931595,0.5801 2.8549,1.0391 4.465,4.0954 5.7481,6.6953 1.3435,2.7224 1.4618,5.0323 1.4589,7.7754 0.6131,-1.2025 1.2107,-2.3866 1.668,-3.3301 0.01,-0.011 0.01,-0.018 0.014,-0.029 0.038,-0.078 0.056,-0.1232 0.092,-0.1972 0.1738,-0.3621 0.3359,-0.7035 0.4512,-0.9629 0.1444,-0.3275 0.2468,-0.5814 0.2656,-0.6856 0.069,-0.3843 0.081,-0.7412 0.059,-1.0761 -1e-4,-7e-4 0,0 0,0 -0.023,-0.3355 -0.081,-0.6482 -0.1485,-0.9473 -0.1352,-0.598 -0.3122,-1.1369 -0.3398,-1.6679 -0.046,-0.8948 0.052,-1.9476 0.2891,-2.6446 0.095,-0.2788 0.2124,-0.5004 0.3515,-0.6328 0.07,-0.066 0.1442,-0.1096 0.2246,-0.1269 0.692302,-0.149 1.373102,-0.4131 2.002002,-0.7071 0.4525,-0.2114 0.8825,-0.4364 1.2519,-0.6543 0.001,-5e-4 0.001,0 0,0 0.4414,-0.2605 0.8078,-0.5043 1.0644,-0.6836 0.2567,-0.1793 0.4024,-0.293 0.4024,-0.293 0.031,-0.052 0.055,-0.087 0.074,-0.1035 0.019,-0.017 0.033,-0.016 0.041,0 0.016,0.031 0.013,0.1202 0,0.2559 -0.089,0.8165 -0.6333,3.2912 -0.1875,4.2968 0.4606,1.0392 1.0292,2.1336 1.6445,3.211 4e-4,8e-4 0,0 0,0 0.3076,0.5383 0.6275,1.0734 0.9512,1.5957 3e-4,5e-4 -3e-4,0 0,0 0.648,1.0457 1.3133,2.042 1.9356,2.9219 0.3112,0.4401 0.6122,0.8515 0.8945,1.2246 0.5645,0.7462 1.056,1.3408 1.4141,1.7168 0.4746,0.4984 0.7935,0.8149 1.0312,1.0371 0.2379,0.222 0.3932,0.3509 0.5449,0.4707 0.3036,0.2404 0.5851,0.4486 1.4493,1.3262 0.4469,0.4539 0.8594,0.7732 1.2324,0.998 4e-4,3e-4 0,-2e-4 0,0 1.1194,0.6728 1.8906,0.4995 2.2207,0.5899 0.2328,0.064 0.4966,0.1119 0.7871,0.1445 0.5811,0.065 1.2691,0.07 2.0274,0.027 3.4122,-0.1931 8.2575,-1.3709 11.2773,-2.5527 1.0054,-0.3935 1.8084,-0.7884 2.2891,-1.1465 9e-4,-6e-4 0,0 0,0 0.1602,-0.1195 0.2834,-0.2336 0.3672,-0.3438 0.6562,-0.8623 1.3912,-1.8104 2.1211,-2.8105 0.1505,-0.2063 0.296,-0.4225 0.4453,-0.6329 0.5742,-0.8089 1.1397,-1.6379 1.6426,-2.4863 0.4262,-0.7189 0.8061,-1.4452 1.125,-2.1699 0.037,-0.084 0.078,-0.1683 0.1133,-0.252 2e-4,-5e-4 -2e-4,0 0,0 0.031,-0.074 0.056,-0.1468 0.086,-0.2207 0.1601,-0.4011 0.2969,-0.8007 0.4082,-1.1973 0.017,-0.062 0.041,-0.124 0.057,-0.1855 1e-4,-7e-4 -2e-4,0 0,0 0.069,-0.2652 0.1247,-0.5274 0.1679,-0.789 0.087,-0.5233 0.1188,-1.0386 0.086,-1.5411 -0.229,-3.5108 -0.3574,-6.9416 -0.3653,-9.6269 -0.01,-2.6853 0.1049,-4.6252 0.3594,-5.1563 0.2257,-0.4713 0.4882,-0.8872 0.793,-1.1933 0.304,-0.3054 0.6489,-0.5018 1.041,-0.5332 0.01,-7e-4 0.018,0 0.027,0 0.1234,-0.01 0.2501,0 0.3828,0.025 0.1413,0.028 0.2872,0.076 0.4394,0.1465 2.6328,1.2251 5.9599,2.808 9.4903,4.4961 8.8259,4.22 18.9109,9.0963 22.5273,10.6855 4e-4,2e-4 0,-1e-4 0,0 0.7217,0.3171 1.1864,0.5042 1.3301,0.5274 0.4458,0.072 0.8773,0.1507 1.2949,0.2344 1.2531,0.2509 2.3829,0.5516 3.4063,0.8867 1.3646,0.4468 2.5396,0.9543 3.5664,1.4863 5e-4,3e-4 0,-2e-4 0,0 0.5128,0.2657 0.988,0.5374 1.4316,0.8106 5e-4,2e-4 0,-3e-4 0,0 1.3315,0.82 2.3742,1.6541 3.2636,2.375 0.2077,0.1683 0.9655,0.4727 1.6172,1.1894 0,0 0.978,-0.3611 1.8399,-1.0059 0.037,-0.028 0.062,-0.028 0.084,-0.021 0.014,0 0.024,0.01 0.033,0.016 0,-0.01 0,-0.01 -0.01,-0.018 -0.1112,-0.3252 -0.4161,-0.7528 -0.8672,-1.2519 -0.2255,-0.2496 -0.4882,-0.517 -0.7812,-0.7989 -0.293,-0.2818 -0.616,-0.578 -0.9649,-0.8847 -4.1868,-3.6812 -11.978,-8.886 -13.3242,-9.1895 0,0 -18.1327,-8.3085 -28.0078,-12.4316 -3.2917,-1.3743 -5.665,-2.2843 -6.1445,-2.2657 z m -15.0059,3.4043 c 3.6872,-0.1365 7.1207,1.3223 8.5469,4.6133 1.0028,2.3141 2.0958,10.0085 1.1211,14.4844 -1.5114,6.9404 -4.4482,12.185 -13.875,13.5625 -2.6739,0.3907 -5.8495,0.254 -8.1309,-1.1895 -5.3585,-3.3905 -8.6083,-11.1692 -9.1191,-15.998 -0.3201,-3.0253 1.234,-6.0725 3.1914,-7.998 1.4035,-1.3806 2.2922,-1.6828 4.7715,-3.2696 1.9951,-1.2769 7.5112,-2.8148 9.7871,-3.5449 1.2201,-0.3914 2.478,-0.6147 3.707,-0.6602 z m -31.412102,29.4473 c -1.5555,2.8846 -3.0195,5.832 -3.0195,5.832 0,0 1.5471,-2.9463 3.0195,-5.832 z"
     style="opacity:1;fill:#ffffff;fill-opacity:1;stroke:none;stroke-width:0.37795275;stroke-linecap:round;stroke-linejoin:round;stroke-miterlimit:4;stroke-dasharray:none;stroke-opacity:1;paint-order:fill markers stroke" />
  <path
     sodipodi:nodetypes="csssscsssscsscccccccscccsc"
     inkscape:connector-curvature="0"
     id="path912"
     d="m 111.4247,189.05283 c -3.27014,0.2927 -8.83937,3.5319 -11.21106,4.3862 -4.049132,1.4586 -13.235467,2.126 -18.796647,2.881 -7.81976,1.0616 -5.95737,1.8874 -5.95737,1.8874 -3.95042,-0.091 -24.71286,7.0632 -33.85406,12.1992 -6.40816,3.6004 -20.27237,4.0005 -28.1086,23.2653 l -8.5000005,20.7441 c -0.90702,2.2136 -6.82376,18.0702 -4.43163996,18.0684 l 330.26171746,-0.25 c 2.39213,0 -4.85542,-12.5788 -6.18359,-14.5684 -13.38673,-20.0535 -17.77346,-28.7141 -31.91019,-43.4362 -19.53155,-8.7677 -41.12336,-15.4751 -61.83981,-23.0579 -6.27847,-2.2981 -11.22497,-6.7766 -17.1301,-8.4523 -1.19555,-0.3392 -2.79094,-1.8619 -4.24274,-2.8492 -1.71205,-0.891 -6.35594,-2.9479 -9.13527,-2.3298 0.39331,0.5588 1.30687,1.6953 1.91436,2.0629 0.9523,0.8913 2.16884,1.5375 3.63408,2.066 5.20193,11.6592 -2.90671,25.6869 -9.13994,34.7485 -10.55063,7.7245 -21.68771,14.182 -27.60352,13.8594 -10.81479,-0.5898 -22.36701,-0.4589 -23.50612,-1.4768 -4.54666,-4.0632 -33.93208,-4.7779 -31.15464,-40.3778 0.17285,-2.2155 4.88979,-4.9938 6.07287,-5.4247 0.14364,-0.052 0.26005,-0.075 0.36524,-0.084 -0.0159,-0.081 -0.0373,-0.1237 -0.0508,-0.2227 l -0.15697,-0.9465 c -3.6642,0.9853 -6.52367,2.049 -9.3352,7.3079 z"
     style="opacity:1;fill:#50002f;fill-opacity:0.72093021;stroke:#000000;stroke-width:0;stroke-linecap:round;stroke-linejoin:round;stroke-miterlimit:4;stroke-dasharray:none;stroke-opacity:1;paint-order:fill markers stroke" />
</svg>
